<svg width="253" height="22" viewBox="0 0 253 22" fill="none" xmlns="http://www.w3.org/2000/svg">
<mask id="path-1-outside-1_712_110" maskUnits="userSpaceOnUse" x="0" y="-1" width="254" height="23" fill="black">
<rect fill="white" y="-1" width="254" height="23"/>
<path d="M1.49 5.19C1.49 2.73 3.62 0.299998 8.6 0.299998C13.25 0.299998 15.74 2.97 15.77 5.49C15.77 8.01 14.39 10.05 12.2 11.22C14.63 12.12 16.52 13.47 16.52 16.11C16.52 18.75 13.97 21.3 8.66 21.3C3.35 21.3 0.74 18.72 0.74 15.57C0.74 13.05 2.21 10.8 4.88 9.6C2.9 8.73 1.49 7.44 1.49 5.19ZM15.02 5.58C15.02 3.36 12.8 0.989998 8.57 0.989998C4.19 0.989998 2.21 3.03 2.21 5.19C2.21 8.55 5.9 9.39 8.57 10.14C9.53 10.41 10.55 10.68 11.48 10.95C13.64 9.87 15.02 7.95 15.02 5.58ZM8.63 10.86C7.58 10.56 6.5 10.29 5.54 9.9C2.96 10.95 1.46 13.11 1.46 15.51C1.46 18.39 3.8 20.61 8.63 20.61C13.34 20.61 15.74 18.45 15.74 16.14C15.74 12.69 12.23 11.85 8.63 10.86ZM30.6388 13.38V14.07H20.3488V13.38H30.6388ZM33.5148 6.66C33.5148 2.61 36.5448 0.299998 40.3548 0.299998C45.6948 0.299998 48.4248 4.14 48.4248 10.17C48.4248 18.12 44.8248 21.3 39.5148 21.3C37.9248 21.3 36.4248 20.91 35.1948 20.22V19.5C36.4548 20.22 38.0148 20.58 39.4848 20.58C44.3748 20.58 47.6748 17.7 47.6748 10.14V9.45C45.6648 11.61 42.9648 12.9 40.2048 12.9C36.7548 12.9 33.5148 10.89 33.5148 6.66ZM34.2648 6.63C34.2648 10.5 37.1148 12.18 40.3248 12.18C43.0248 12.18 45.7548 10.86 47.6148 8.61C47.1948 3.84 44.7048 0.989998 40.3848 0.989998C36.9648 0.989998 34.2648 2.97 34.2648 6.63ZM51.5909 6.66C51.5909 2.61 54.6209 0.299998 58.4309 0.299998C63.7709 0.299998 66.5009 4.14 66.5009 10.17C66.5009 18.12 62.9009 21.3 57.5909 21.3C56.0009 21.3 54.5009 20.91 53.2709 20.22V19.5C54.5309 20.22 56.0909 20.58 57.5609 20.58C62.4509 20.58 65.7509 17.7 65.7509 10.14V9.45C63.7409 11.61 61.0409 12.9 58.2809 12.9C54.8309 12.9 51.5909 10.89 51.5909 6.66ZM52.3409 6.63C52.3409 10.5 55.1909 12.18 58.4009 12.18C61.1009 12.18 63.8309 10.86 65.6909 8.61C65.2709 3.84 62.7809 0.989998 58.4609 0.989998C55.0409 0.989998 52.3409 2.97 52.3409 6.63ZM69.6671 6.66C69.6671 2.61 72.6971 0.299998 76.5071 0.299998C81.8471 0.299998 84.5771 4.14 84.5771 10.17C84.5771 18.12 80.9771 21.3 75.6671 21.3C74.0771 21.3 72.5771 20.91 71.3471 20.22V19.5C72.6071 20.22 74.1671 20.58 75.6371 20.58C80.5271 20.58 83.8271 17.7 83.8271 10.14V9.45C81.8171 11.61 79.1171 12.9 76.3571 12.9C72.9071 12.9 69.6671 10.89 69.6671 6.66ZM70.4171 6.63C70.4171 10.5 73.2671 12.18 76.4771 12.18C79.1771 12.18 81.9071 10.86 83.7671 8.61C83.3471 3.84 80.8571 0.989998 76.5371 0.989998C73.1171 0.989998 70.4171 2.97 70.4171 6.63ZM98.7833 13.38V14.07H88.4933V13.38H98.7833ZM101.659 6.66C101.659 2.61 104.689 0.299998 108.499 0.299998C113.839 0.299998 116.569 4.14 116.569 10.17C116.569 18.12 112.969 21.3 107.659 21.3C106.069 21.3 104.569 20.91 103.339 20.22V19.5C104.599 20.22 106.159 20.58 107.629 20.58C112.519 20.58 115.819 17.7 115.819 10.14V9.45C113.809 11.61 111.109 12.9 108.349 12.9C104.899 12.9 101.659 10.89 101.659 6.66ZM102.409 6.63C102.409 10.5 105.259 12.18 108.469 12.18C111.169 12.18 113.899 10.86 115.759 8.61C115.339 3.84 112.849 0.989998 108.529 0.989998C105.109 0.989998 102.409 2.97 102.409 6.63ZM119.735 6.66C119.735 2.61 122.765 0.299998 126.575 0.299998C131.915 0.299998 134.645 4.14 134.645 10.17C134.645 18.12 131.045 21.3 125.735 21.3C124.145 21.3 122.645 20.91 121.415 20.22V19.5C122.675 20.22 124.235 20.58 125.705 20.58C130.595 20.58 133.895 17.7 133.895 10.14V9.45C131.885 11.61 129.185 12.9 126.425 12.9C122.975 12.9 119.735 10.89 119.735 6.66ZM120.485 6.63C120.485 10.5 123.335 12.18 126.545 12.18C129.245 12.18 131.975 10.86 133.835 8.61C133.415 3.84 130.925 0.989998 126.605 0.989998C123.185 0.989998 120.485 2.97 120.485 6.63ZM137.812 6.66C137.812 2.61 140.842 0.299998 144.652 0.299998C149.992 0.299998 152.722 4.14 152.722 10.17C152.722 18.12 149.122 21.3 143.812 21.3C142.222 21.3 140.722 20.91 139.492 20.22V19.5C140.752 20.22 142.312 20.58 143.782 20.58C148.672 20.58 151.972 17.7 151.972 10.14V9.45C149.962 11.61 147.262 12.9 144.502 12.9C141.052 12.9 137.812 10.89 137.812 6.66ZM138.562 6.63C138.562 10.5 141.412 12.18 144.622 12.18C147.322 12.18 150.052 10.86 151.912 8.61C151.492 3.84 149.002 0.989998 144.682 0.989998C141.262 0.989998 138.562 2.97 138.562 6.63ZM166.928 13.38V14.07H156.638V13.38H166.928ZM169.804 6.66C169.804 2.61 172.834 0.299998 176.644 0.299998C181.984 0.299998 184.714 4.14 184.714 10.17C184.714 18.12 181.114 21.3 175.804 21.3C174.214 21.3 172.714 20.91 171.484 20.22V19.5C172.744 20.22 174.304 20.58 175.774 20.58C180.664 20.58 183.964 17.7 183.964 10.14V9.45C181.954 11.61 179.254 12.9 176.494 12.9C173.044 12.9 169.804 10.89 169.804 6.66ZM170.554 6.63C170.554 10.5 173.404 12.18 176.614 12.18C179.314 12.18 182.044 10.86 183.904 8.61C183.484 3.84 180.994 0.989998 176.674 0.989998C173.254 0.989998 170.554 2.97 170.554 6.63ZM187.88 6.66C187.88 2.61 190.91 0.299998 194.72 0.299998C200.06 0.299998 202.79 4.14 202.79 10.17C202.79 18.12 199.19 21.3 193.88 21.3C192.29 21.3 190.79 20.91 189.56 20.22V19.5C190.82 20.22 192.38 20.58 193.85 20.58C198.74 20.58 202.04 17.7 202.04 10.14V9.45C200.03 11.61 197.33 12.9 194.57 12.9C191.12 12.9 187.88 10.89 187.88 6.66ZM188.63 6.63C188.63 10.5 191.48 12.18 194.69 12.18C197.39 12.18 200.12 10.86 201.98 8.61C201.56 3.84 199.07 0.989998 194.75 0.989998C191.33 0.989998 188.63 2.97 188.63 6.63ZM216.996 13.38V14.07H206.706V13.38H216.996ZM219.872 6.66C219.872 2.61 222.902 0.299998 226.712 0.299998C232.052 0.299998 234.782 4.14 234.782 10.17C234.782 18.12 231.182 21.3 225.872 21.3C224.282 21.3 222.782 20.91 221.552 20.22V19.5C222.812 20.22 224.372 20.58 225.842 20.58C230.732 20.58 234.032 17.7 234.032 10.14V9.45C232.022 11.61 229.322 12.9 226.562 12.9C223.112 12.9 219.872 10.89 219.872 6.66ZM220.622 6.63C220.622 10.5 223.472 12.18 226.682 12.18C229.382 12.18 232.112 10.86 233.972 8.61C233.552 3.84 231.062 0.989998 226.742 0.989998C223.322 0.989998 220.622 2.97 220.622 6.63ZM237.948 6.66C237.948 2.61 240.978 0.299998 244.788 0.299998C250.128 0.299998 252.858 4.14 252.858 10.17C252.858 18.12 249.258 21.3 243.948 21.3C242.358 21.3 240.858 20.91 239.628 20.22V19.5C240.888 20.22 242.448 20.58 243.918 20.58C248.808 20.58 252.108 17.7 252.108 10.14V9.45C250.098 11.61 247.398 12.9 244.638 12.9C241.188 12.9 237.948 10.89 237.948 6.66ZM238.698 6.63C238.698 10.5 241.548 12.18 244.758 12.18C247.458 12.18 250.188 10.86 252.048 8.61C251.628 3.84 249.138 0.989998 244.818 0.989998C241.398 0.989998 238.698 2.97 238.698 6.63Z"/>
</mask>
<path d="M1.49 5.19C1.49 2.73 3.62 0.299998 8.6 0.299998C13.25 0.299998 15.74 2.97 15.77 5.49C15.77 8.01 14.39 10.05 12.2 11.22C14.63 12.12 16.52 13.47 16.52 16.11C16.52 18.75 13.97 21.3 8.66 21.3C3.35 21.3 0.74 18.72 0.74 15.57C0.74 13.05 2.21 10.8 4.88 9.6C2.9 8.73 1.49 7.44 1.49 5.19ZM15.02 5.58C15.02 3.36 12.8 0.989998 8.57 0.989998C4.19 0.989998 2.21 3.03 2.21 5.19C2.21 8.55 5.9 9.39 8.57 10.14C9.53 10.41 10.55 10.68 11.48 10.95C13.64 9.87 15.02 7.95 15.02 5.58ZM8.63 10.86C7.58 10.56 6.5 10.29 5.54 9.9C2.96 10.95 1.46 13.11 1.46 15.51C1.46 18.39 3.8 20.61 8.63 20.61C13.34 20.61 15.74 18.45 15.74 16.14C15.74 12.69 12.23 11.85 8.63 10.86ZM30.6388 13.38V14.07H20.3488V13.38H30.6388ZM33.5148 6.66C33.5148 2.61 36.5448 0.299998 40.3548 0.299998C45.6948 0.299998 48.4248 4.14 48.4248 10.17C48.4248 18.12 44.8248 21.3 39.5148 21.3C37.9248 21.3 36.4248 20.91 35.1948 20.22V19.5C36.4548 20.22 38.0148 20.58 39.4848 20.58C44.3748 20.58 47.6748 17.7 47.6748 10.14V9.45C45.6648 11.61 42.9648 12.9 40.2048 12.9C36.7548 12.9 33.5148 10.89 33.5148 6.66ZM34.2648 6.63C34.2648 10.5 37.1148 12.18 40.3248 12.18C43.0248 12.18 45.7548 10.86 47.6148 8.61C47.1948 3.84 44.7048 0.989998 40.3848 0.989998C36.9648 0.989998 34.2648 2.97 34.2648 6.63ZM51.5909 6.66C51.5909 2.61 54.6209 0.299998 58.4309 0.299998C63.7709 0.299998 66.5009 4.14 66.5009 10.17C66.5009 18.12 62.9009 21.3 57.5909 21.3C56.0009 21.3 54.5009 20.91 53.2709 20.22V19.5C54.5309 20.22 56.0909 20.58 57.5609 20.58C62.4509 20.58 65.7509 17.7 65.7509 10.14V9.45C63.7409 11.61 61.0409 12.9 58.2809 12.9C54.8309 12.9 51.5909 10.89 51.5909 6.66ZM52.3409 6.63C52.3409 10.5 55.1909 12.18 58.4009 12.18C61.1009 12.18 63.8309 10.86 65.6909 8.61C65.2709 3.84 62.7809 0.989998 58.4609 0.989998C55.0409 0.989998 52.3409 2.97 52.3409 6.63ZM69.6671 6.66C69.6671 2.61 72.6971 0.299998 76.5071 0.299998C81.8471 0.299998 84.5771 4.14 84.5771 10.17C84.5771 18.12 80.9771 21.3 75.6671 21.3C74.0771 21.3 72.5771 20.91 71.3471 20.22V19.5C72.6071 20.22 74.1671 20.58 75.6371 20.58C80.5271 20.58 83.8271 17.7 83.8271 10.14V9.45C81.8171 11.61 79.1171 12.9 76.3571 12.9C72.9071 12.9 69.6671 10.89 69.6671 6.66ZM70.4171 6.63C70.4171 10.5 73.2671 12.18 76.4771 12.18C79.1771 12.18 81.9071 10.86 83.7671 8.61C83.3471 3.84 80.8571 0.989998 76.5371 0.989998C73.1171 0.989998 70.4171 2.97 70.4171 6.63ZM98.7833 13.38V14.07H88.4933V13.38H98.7833ZM101.659 6.66C101.659 2.61 104.689 0.299998 108.499 0.299998C113.839 0.299998 116.569 4.14 116.569 10.17C116.569 18.12 112.969 21.3 107.659 21.3C106.069 21.3 104.569 20.91 103.339 20.22V19.5C104.599 20.22 106.159 20.58 107.629 20.58C112.519 20.58 115.819 17.7 115.819 10.14V9.45C113.809 11.61 111.109 12.9 108.349 12.9C104.899 12.9 101.659 10.89 101.659 6.66ZM102.409 6.63C102.409 10.5 105.259 12.18 108.469 12.18C111.169 12.18 113.899 10.86 115.759 8.61C115.339 3.84 112.849 0.989998 108.529 0.989998C105.109 0.989998 102.409 2.97 102.409 6.63ZM119.735 6.66C119.735 2.61 122.765 0.299998 126.575 0.299998C131.915 0.299998 134.645 4.14 134.645 10.17C134.645 18.12 131.045 21.3 125.735 21.3C124.145 21.3 122.645 20.91 121.415 20.22V19.5C122.675 20.22 124.235 20.58 125.705 20.58C130.595 20.58 133.895 17.7 133.895 10.14V9.45C131.885 11.61 129.185 12.9 126.425 12.9C122.975 12.9 119.735 10.89 119.735 6.66ZM120.485 6.63C120.485 10.5 123.335 12.18 126.545 12.18C129.245 12.18 131.975 10.86 133.835 8.61C133.415 3.84 130.925 0.989998 126.605 0.989998C123.185 0.989998 120.485 2.97 120.485 6.63ZM137.812 6.66C137.812 2.61 140.842 0.299998 144.652 0.299998C149.992 0.299998 152.722 4.14 152.722 10.17C152.722 18.12 149.122 21.3 143.812 21.3C142.222 21.3 140.722 20.91 139.492 20.22V19.5C140.752 20.22 142.312 20.58 143.782 20.58C148.672 20.58 151.972 17.7 151.972 10.14V9.45C149.962 11.61 147.262 12.9 144.502 12.9C141.052 12.9 137.812 10.89 137.812 6.66ZM138.562 6.63C138.562 10.5 141.412 12.18 144.622 12.18C147.322 12.18 150.052 10.86 151.912 8.61C151.492 3.84 149.002 0.989998 144.682 0.989998C141.262 0.989998 138.562 2.97 138.562 6.63ZM166.928 13.38V14.07H156.638V13.38H166.928ZM169.804 6.66C169.804 2.61 172.834 0.299998 176.644 0.299998C181.984 0.299998 184.714 4.14 184.714 10.17C184.714 18.12 181.114 21.3 175.804 21.3C174.214 21.3 172.714 20.91 171.484 20.22V19.5C172.744 20.22 174.304 20.58 175.774 20.58C180.664 20.58 183.964 17.7 183.964 10.14V9.45C181.954 11.61 179.254 12.9 176.494 12.9C173.044 12.9 169.804 10.89 169.804 6.66ZM170.554 6.63C170.554 10.5 173.404 12.18 176.614 12.18C179.314 12.18 182.044 10.86 183.904 8.61C183.484 3.84 180.994 0.989998 176.674 0.989998C173.254 0.989998 170.554 2.97 170.554 6.63ZM187.88 6.66C187.88 2.61 190.91 0.299998 194.72 0.299998C200.06 0.299998 202.79 4.14 202.79 10.17C202.79 18.12 199.19 21.3 193.88 21.3C192.29 21.3 190.79 20.91 189.56 20.22V19.5C190.82 20.22 192.38 20.58 193.85 20.58C198.74 20.58 202.04 17.7 202.04 10.14V9.45C200.03 11.61 197.33 12.9 194.57 12.9C191.12 12.9 187.88 10.89 187.88 6.66ZM188.63 6.63C188.63 10.5 191.48 12.18 194.69 12.18C197.39 12.18 200.12 10.86 201.98 8.61C201.56 3.84 199.07 0.989998 194.75 0.989998C191.33 0.989998 188.63 2.97 188.63 6.63ZM216.996 13.38V14.07H206.706V13.38H216.996ZM219.872 6.66C219.872 2.61 222.902 0.299998 226.712 0.299998C232.052 0.299998 234.782 4.14 234.782 10.17C234.782 18.12 231.182 21.3 225.872 21.3C224.282 21.3 222.782 20.91 221.552 20.22V19.5C222.812 20.22 224.372 20.58 225.842 20.58C230.732 20.58 234.032 17.7 234.032 10.14V9.45C232.022 11.61 229.322 12.9 226.562 12.9C223.112 12.9 219.872 10.89 219.872 6.66ZM220.622 6.63C220.622 10.5 223.472 12.18 226.682 12.18C229.382 12.18 232.112 10.86 233.972 8.61C233.552 3.84 231.062 0.989998 226.742 0.989998C223.322 0.989998 220.622 2.97 220.622 6.63ZM237.948 6.66C237.948 2.61 240.978 0.299998 244.788 0.299998C250.128 0.299998 252.858 4.14 252.858 10.17C252.858 18.12 249.258 21.3 243.948 21.3C242.358 21.3 240.858 20.91 239.628 20.22V19.5C240.888 20.22 242.448 20.58 243.918 20.58C248.808 20.58 252.108 17.7 252.108 10.14V9.45C250.098 11.61 247.398 12.9 244.638 12.9C241.188 12.9 237.948 10.89 237.948 6.66ZM238.698 6.63C238.698 10.5 241.548 12.18 244.758 12.18C247.458 12.18 250.188 10.86 252.048 8.61C251.628 3.84 249.138 0.989998 244.818 0.989998C241.398 0.989998 238.698 2.97 238.698 6.63Z" fill="white"/>
<path d="M15.77 5.49H16.27L16.27 5.48405L15.77 5.49ZM12.2 11.22L11.9644 10.779L10.9839 11.3028L12.0263 11.6889L12.2 11.22ZM4.88 9.6L5.08497 10.0561L6.11118 9.59484L5.08114 9.14224L4.88 9.6ZM8.57 10.14L8.70537 9.65867L8.70522 9.65863L8.57 10.14ZM11.48 10.95L11.3406 11.4302L11.5286 11.4847L11.7036 11.3972L11.48 10.95ZM8.63 10.86L8.49263 11.3408L8.49742 11.3421L8.63 10.86ZM5.54 9.9L5.72819 9.43677L5.53983 9.36025L5.35152 9.43688L5.54 9.9ZM1.99 5.19C1.99 4.11279 2.45265 3.03462 3.48798 2.21442C4.53022 1.38875 6.18703 0.799998 8.6 0.799998V-0.200002C6.03297 -0.200002 4.13478 0.426246 2.86702 1.43058C1.59235 2.44038 0.99 3.80721 0.99 5.19H1.99ZM8.6 0.799998C13.0708 0.799998 15.2443 3.33558 15.27 5.49595L16.27 5.48405C16.2357 2.60442 13.4292 -0.200002 8.6 -0.200002V0.799998ZM15.27 5.49C15.27 7.80484 14.0107 9.68577 11.9644 10.779L12.4356 11.661C14.7693 10.4142 16.27 8.21516 16.27 5.49H15.27ZM12.0263 11.6889C13.2132 12.1284 14.215 12.6599 14.9168 13.3652C15.6031 14.0548 16.02 14.9268 16.02 16.11H17.02C17.02 14.6532 16.4919 13.5302 15.6257 12.6598C14.775 11.8051 13.6168 11.2116 12.3737 10.7511L12.0263 11.6889ZM16.02 16.11C16.02 17.2574 15.4694 18.4116 14.2829 19.2938C13.0904 20.1804 11.2394 20.8 8.66 20.8V21.8C11.3906 21.8 13.4696 21.1446 14.8796 20.0962C16.2956 19.0434 17.02 17.6026 17.02 16.11H16.02ZM8.66 20.8C6.08083 20.8 4.22156 20.1732 3.0185 19.2238C1.82535 18.2821 1.24 16.9957 1.24 15.57H0.24C0.24 17.2943 0.959655 18.8729 2.399 20.0087C3.82844 21.1368 5.92917 21.8 8.66 21.8V20.8ZM1.24 15.57C1.24 13.266 2.57631 11.1835 5.08497 10.0561L4.67503 9.14394C1.84369 10.4165 0.24 12.8339 0.24 15.57H1.24ZM5.08114 9.14224C4.12905 8.7239 3.35722 8.22249 2.82496 7.59043C2.30217 6.96962 1.99 6.19917 1.99 5.19H0.99C0.99 6.43083 1.38283 7.43038 2.06004 8.23457C2.72779 9.02751 3.65095 9.6061 4.67886 10.0578L5.08114 9.14224ZM15.52 5.58C15.52 2.98691 12.968 0.489998 8.57 0.489998V1.49C12.632 1.49 14.52 3.73309 14.52 5.58H15.52ZM8.57 0.489998C6.30777 0.489998 4.60174 1.0164 3.44796 1.87965C2.2853 2.74956 1.71 3.94506 1.71 5.19H2.71C2.71 4.27494 3.1247 3.37044 4.04704 2.68034C4.97826 1.9836 6.45223 1.49 8.57 1.49V0.489998ZM1.71 5.19C1.71 7.10539 2.7842 8.29638 4.13915 9.07699C5.46326 9.83984 7.1293 10.2547 8.43478 10.6214L8.70522 9.65863C7.3407 9.27534 5.82674 8.89516 4.63835 8.21051C3.4808 7.54362 2.71 6.63461 2.71 5.19H1.71ZM8.43463 10.6213C9.40773 10.895 10.4106 11.1602 11.3406 11.4302L11.6194 10.4698C10.6894 10.1998 9.65227 9.92499 8.70537 9.65867L8.43463 10.6213ZM11.7036 11.3972C14.004 10.247 15.52 8.16979 15.52 5.58H14.52C14.52 7.73021 13.276 9.49297 11.2564 10.5028L11.7036 11.3972ZM8.76736 10.3792C7.69335 10.0724 6.65535 9.81343 5.72819 9.43677L5.35181 10.3632C6.34465 10.7666 7.46665 11.0476 8.49264 11.3408L8.76736 10.3792ZM5.35152 9.43688C2.6065 10.554 0.96 12.8826 0.96 15.51H1.96C1.96 13.3374 3.3135 11.346 5.72848 10.3631L5.35152 9.43688ZM0.96 15.51C0.96 17.0983 1.61171 18.5225 2.92877 19.5362C4.23241 20.5396 6.14523 21.11 8.63 21.11V20.11C6.28477 20.11 4.61259 19.5704 3.53873 18.7438C2.47829 17.9275 1.96 16.8017 1.96 15.51H0.96ZM8.63 21.11C11.0562 21.11 12.9422 20.5542 14.2372 19.6514C15.5383 18.7444 16.24 17.4834 16.24 16.14H15.24C15.24 17.1066 14.7417 18.0806 13.6653 18.8311C12.5828 19.5858 10.9138 20.11 8.63 20.11V21.11ZM16.24 16.14C16.24 15.1868 15.9957 14.3896 15.5516 13.7219C15.1113 13.0597 14.4929 12.5525 13.7846 12.1443C12.3882 11.3395 10.5346 10.8652 8.76258 10.3779L8.49742 11.3421C10.3254 11.8448 12.0268 12.2855 13.2854 13.0107C13.9046 13.3675 14.3887 13.779 14.719 14.2756C15.0455 14.7667 15.24 15.3682 15.24 16.14H16.24ZM30.6388 13.38H31.1388V12.88H30.6388V13.38ZM30.6388 14.07V14.57H31.1388V14.07H30.6388ZM20.3487 14.07H19.8487V14.57H20.3487V14.07ZM20.3487 13.38V12.88H19.8487V13.38H20.3487ZM30.1388 13.38V14.07H31.1388V13.38H30.1388ZM30.6388 13.57H20.3487V14.57H30.6388V13.57ZM20.8487 14.07V13.38H19.8487V14.07H20.8487ZM20.3487 13.88H30.6388V12.88H20.3487V13.88ZM35.1948 20.22H34.6948V20.5128L34.9501 20.6561L35.1948 20.22ZM35.1948 19.5L35.4428 19.0659L34.6948 18.6384V19.5H35.1948ZM47.6748 9.45H48.1748V8.17872L47.3087 9.10938L47.6748 9.45ZM47.6148 8.61L48.0001 8.92857L48.1308 8.77048L48.1128 8.56614L47.6148 8.61ZM34.0148 6.66C34.0148 4.76923 34.7173 3.31955 35.836 2.3369C36.9624 1.34746 38.5479 0.799998 40.3548 0.799998V-0.200002C38.3517 -0.200002 36.5172 0.407534 35.176 1.5856C33.8272 2.77044 33.0148 4.50077 33.0148 6.66H34.0148ZM40.3548 0.799998C42.8929 0.799998 44.7568 1.70558 45.9995 3.28315C47.2562 4.8785 47.9248 7.2215 47.9248 10.17H48.9248C48.9248 7.0885 48.2283 4.4965 46.785 2.66434C45.3278 0.814413 43.1566 -0.200002 40.3548 -0.200002V0.799998ZM47.9248 10.17C47.9248 14.0789 47.0387 16.7238 45.5846 18.3872C44.1406 20.039 42.068 20.8 39.5148 20.8V21.8C42.2715 21.8 44.654 20.971 46.3375 19.0453C48.0108 17.1312 48.9248 14.2111 48.9248 10.17H47.9248ZM39.5148 20.8C38.0047 20.8 36.5898 20.4293 35.4394 19.7839L34.9501 20.6561C36.2597 21.3907 37.8448 21.8 39.5148 21.8V20.8ZM35.6948 20.22V19.5H34.6948V20.22H35.6948ZM34.9467 19.9341C36.2928 20.7033 37.9408 21.08 39.4848 21.08V20.08C38.0888 20.08 36.6168 19.7367 35.4428 19.0659L34.9467 19.9341ZM39.4848 21.08C42.0298 21.08 44.2348 20.327 45.7921 18.5216C47.3377 16.7299 48.1748 13.9819 48.1748 10.14H47.1748C47.1748 13.8581 46.3619 16.3301 45.0349 17.8684C43.7198 19.393 41.8298 20.08 39.4848 20.08V21.08ZM48.1748 10.14V9.45H47.1748V10.14H48.1748ZM47.3087 9.10938C45.3803 11.1817 42.8079 12.4 40.2048 12.4V13.4C43.1216 13.4 45.9492 12.0383 48.0408 9.79062L47.3087 9.10938ZM40.2048 12.4C38.5708 12.4 37.0191 11.9234 35.8855 10.9817C34.7645 10.0503 34.0148 8.63412 34.0148 6.66H33.0148C33.0148 8.91588 33.8851 10.6197 35.2465 11.7508C36.5954 12.8716 38.3887 13.4 40.2048 13.4V12.4ZM33.7648 6.63C33.7648 8.70072 34.5341 10.2368 35.776 11.2445C37.0026 12.2398 38.6399 12.68 40.3248 12.68V11.68C38.7996 11.68 37.4069 11.2802 36.4061 10.468C35.4205 9.66822 34.7648 8.42928 34.7648 6.63H33.7648ZM40.3248 12.68C43.184 12.68 46.0518 11.2854 48.0001 8.92857L47.2294 8.29143C45.4577 10.4346 42.8655 11.68 40.3248 11.68V12.68ZM48.1128 8.56614C47.8965 6.1094 47.1421 4.08585 45.8287 2.67106C44.5057 1.24596 42.6628 0.489998 40.3848 0.489998V1.49C42.4267 1.49 43.9888 2.15903 45.0958 3.35143C46.2124 4.55415 46.913 6.3406 47.1167 8.65386L48.1128 8.56614ZM40.3848 0.489998C38.5822 0.489998 36.9275 1.01191 35.7154 2.05915C34.494 3.11439 33.7648 4.66704 33.7648 6.63H34.7648C34.7648 4.93296 35.3856 3.66561 36.3691 2.81585C37.362 1.95809 38.7673 1.49 40.3848 1.49V0.489998ZM53.2709 20.22H52.7709V20.5128L53.0263 20.6561L53.2709 20.22ZM53.2709 19.5L53.519 19.0659L52.7709 18.6384V19.5H53.2709ZM65.7509 9.45H66.2509V8.17872L65.3849 9.10938L65.7509 9.45ZM65.6909 8.61L66.0763 8.92857L66.207 8.77048L66.189 8.56614L65.6909 8.61ZM52.0909 6.66C52.0909 4.76923 52.7935 3.31955 53.9122 2.3369C55.0386 1.34746 56.6241 0.799998 58.4309 0.799998V-0.200002C56.4278 -0.200002 54.5933 0.407534 53.2522 1.5856C51.9034 2.77044 51.0909 4.50077 51.0909 6.66H52.0909ZM58.4309 0.799998C60.9691 0.799998 62.8329 1.70558 64.0757 3.28315C65.3324 4.8785 66.0009 7.2215 66.0009 10.17H67.0009C67.0009 7.0885 66.3045 4.4965 64.8612 2.66434C63.4039 0.814413 61.2328 -0.200002 58.4309 -0.200002V0.799998ZM66.0009 10.17C66.0009 14.0789 65.1149 16.7238 63.6608 18.3872C62.2167 20.039 60.1442 20.8 57.5909 20.8V21.8C60.3477 21.8 62.7301 20.971 64.4136 19.0453C66.087 17.1312 67.0009 14.2111 67.0009 10.17H66.0009ZM57.5909 20.8C56.0809 20.8 54.666 20.4293 53.5156 19.7839L53.0263 20.6561C54.3359 21.3907 55.921 21.8 57.5909 21.8V20.8ZM53.7709 20.22V19.5H52.7709V20.22H53.7709ZM53.0229 19.9341C54.369 20.7033 56.0169 21.08 57.5609 21.08V20.08C56.165 20.08 54.6929 19.7367 53.519 19.0659L53.0229 19.9341ZM57.5609 21.08C60.1059 21.08 62.3109 20.327 63.8683 18.5216C65.4139 16.7299 66.2509 13.9819 66.2509 10.14H65.2509C65.2509 13.8581 64.438 16.3301 63.1111 17.8684C61.7959 19.393 59.906 20.08 57.5609 20.08V21.08ZM66.2509 10.14V9.45H65.2509V10.14H66.2509ZM65.3849 9.10938C63.4565 11.1817 60.8841 12.4 58.2809 12.4V13.4C61.1978 13.4 64.0254 12.0383 66.117 9.79062L65.3849 9.10938ZM58.2809 12.4C56.647 12.4 55.0953 11.9234 53.9617 10.9817C52.8406 10.0503 52.0909 8.63412 52.0909 6.66H51.0909C51.0909 8.91588 51.9612 10.6197 53.3227 11.7508C54.6716 12.8716 56.4649 13.4 58.2809 13.4V12.4ZM51.8409 6.63C51.8409 8.70072 52.6102 10.2368 53.8521 11.2445C55.0788 12.2398 56.7161 12.68 58.4009 12.68V11.68C56.8758 11.68 55.4831 11.2802 54.4822 10.468C53.4966 9.66822 52.8409 8.42928 52.8409 6.63H51.8409ZM58.4009 12.68C61.2602 12.68 64.128 11.2854 66.0763 8.92857L65.3056 8.29143C63.5339 10.4346 60.9417 11.68 58.4009 11.68V12.68ZM66.189 8.56614C65.9727 6.1094 65.2183 4.08585 63.9049 2.67106C62.5819 1.24596 60.739 0.489998 58.4609 0.489998V1.49C60.5029 1.49 62.065 2.15903 63.172 3.35143C64.2886 4.55415 64.9892 6.3406 65.1929 8.65386L66.189 8.56614ZM58.4609 0.489998C56.6584 0.489998 55.0037 1.01191 53.7916 2.05915C52.5701 3.11439 51.8409 4.66704 51.8409 6.63H52.8409C52.8409 4.93296 53.4617 3.66561 54.4453 2.81585C55.4382 1.95809 56.8435 1.49 58.4609 1.49V0.489998ZM71.3471 20.22H70.8471V20.5128L71.1025 20.6561L71.3471 20.22ZM71.3471 19.5L71.5952 19.0659L70.8471 18.6384V19.5H71.3471ZM83.8271 9.45H84.3271V8.17872L83.4611 9.10938L83.8271 9.45ZM83.7671 8.61L84.1525 8.92857L84.2832 8.77048L84.2652 8.56614L83.7671 8.61ZM70.1671 6.66C70.1671 4.76923 70.8697 3.31955 71.9883 2.3369C73.1147 1.34746 74.7002 0.799998 76.5071 0.799998V-0.200002C74.504 -0.200002 72.6695 0.407534 71.3284 1.5856C69.9795 2.77044 69.1671 4.50077 69.1671 6.66H70.1671ZM76.5071 0.799998C79.0452 0.799998 80.9091 1.70558 82.1518 3.28315C83.4086 4.8785 84.0771 7.2215 84.0771 10.17H85.0771C85.0771 7.0885 84.3807 4.4965 82.9374 2.66434C81.4801 0.814413 79.309 -0.200002 76.5071 -0.200002V0.799998ZM84.0771 10.17C84.0771 14.0789 83.1911 16.7238 81.7369 18.3872C80.2929 20.039 78.2203 20.8 75.6671 20.8V21.8C78.4239 21.8 80.8063 20.971 82.4898 19.0453C84.1631 17.1312 85.0771 14.2111 85.0771 10.17H84.0771ZM75.6671 20.8C74.157 20.8 72.7422 20.4293 71.5917 19.7839L71.1025 20.6561C72.4121 21.3907 73.9972 21.8 75.6671 21.8V20.8ZM71.8471 20.22V19.5H70.8471V20.22H71.8471ZM71.099 19.9341C72.4451 20.7033 74.0931 21.08 75.6371 21.08V20.08C74.2411 20.08 72.7691 19.7367 71.5952 19.0659L71.099 19.9341ZM75.6371 21.08C78.1821 21.08 80.3871 20.327 81.9445 18.5216C83.49 16.7299 84.3271 13.9819 84.3271 10.14H83.3271C83.3271 13.8581 82.5142 16.3301 81.1873 17.8684C79.8721 19.393 77.9821 20.08 75.6371 20.08V21.08ZM84.3271 10.14V9.45H83.3271V10.14H84.3271ZM83.4611 9.10938C81.5327 11.1817 78.9603 12.4 76.3571 12.4V13.4C79.2739 13.4 82.1015 12.0383 84.1931 9.79062L83.4611 9.10938ZM76.3571 12.4C74.7232 12.4 73.1714 11.9234 72.0379 10.9817C70.9168 10.0503 70.1671 8.63412 70.1671 6.66H69.1671C69.1671 8.91588 70.0374 10.6197 71.3988 11.7508C72.7478 12.8716 74.541 13.4 76.3571 13.4V12.4ZM69.9171 6.63C69.9171 8.70072 70.6864 10.2368 71.9283 11.2445C73.1549 12.2398 74.7923 12.68 76.4771 12.68V11.68C74.9519 11.68 73.5593 11.2802 72.5584 10.468C71.5728 9.66822 70.9171 8.42928 70.9171 6.63H69.9171ZM76.4771 12.68C79.3364 12.68 82.2042 11.2854 84.1525 8.92857L83.3817 8.29143C81.61 10.4346 79.0179 11.68 76.4771 11.68V12.68ZM84.2652 8.56614C84.0489 6.1094 83.2945 4.08585 81.981 2.67106C80.658 1.24596 78.8152 0.489998 76.5371 0.489998V1.49C78.5791 1.49 80.1412 2.15903 81.2482 3.35143C82.3647 4.55415 83.0654 6.3406 83.269 8.65386L84.2652 8.56614ZM76.5371 0.489998C74.7346 0.489998 73.0799 1.01191 71.8677 2.05915C70.6463 3.11439 69.9171 4.66704 69.9171 6.63H70.9171C70.9171 4.93296 71.5379 3.66561 72.5215 2.81585C73.5143 1.95809 74.9197 1.49 76.5371 1.49V0.489998ZM98.7833 13.38H99.2833V12.88H98.7833V13.38ZM98.7833 14.07V14.57H99.2833V14.07H98.7833ZM88.4933 14.07H87.9933V14.57H88.4933V14.07ZM88.4933 13.38V12.88H87.9933V13.38H88.4933ZM98.2833 13.38V14.07H99.2833V13.38H98.2833ZM98.7833 13.57H88.4933V14.57H98.7833V13.57ZM88.9933 14.07V13.38H87.9933V14.07H88.9933ZM88.4933 13.88H98.7833V12.88H88.4933V13.88ZM103.339 20.22H102.839V20.5128L103.095 20.6561L103.339 20.22ZM103.339 19.5L103.587 19.0659L102.839 18.6384V19.5H103.339ZM115.819 9.45H116.319V8.17872L115.453 9.10938L115.819 9.45ZM115.759 8.61L116.145 8.92857L116.275 8.77048L116.257 8.56614L115.759 8.61ZM102.159 6.66C102.159 4.76923 102.862 3.31955 103.981 2.3369C105.107 1.34746 106.692 0.799998 108.499 0.799998V-0.200002C106.496 -0.200002 104.662 0.407534 103.321 1.5856C101.972 2.77044 101.159 4.50077 101.159 6.66H102.159ZM108.499 0.799998C111.037 0.799998 112.901 1.70558 114.144 3.28315C115.401 4.8785 116.069 7.2215 116.069 10.17H117.069C117.069 7.0885 116.373 4.4965 114.93 2.66434C113.472 0.814413 111.301 -0.200002 108.499 -0.200002V0.799998ZM116.069 10.17C116.069 14.0789 115.183 16.7238 113.729 18.3872C112.285 20.039 110.213 20.8 107.659 20.8V21.8C110.416 21.8 112.799 20.971 114.482 19.0453C116.155 17.1312 117.069 14.2111 117.069 10.17H116.069ZM107.659 20.8C106.149 20.8 104.734 20.4293 103.584 19.7839L103.095 20.6561C104.404 21.3907 105.989 21.8 107.659 21.8V20.8ZM103.839 20.22V19.5H102.839V20.22H103.839ZM103.091 19.9341C104.437 20.7033 106.085 21.08 107.629 21.08V20.08C106.233 20.08 104.761 19.7367 103.587 19.0659L103.091 19.9341ZM107.629 21.08C110.174 21.08 112.379 20.327 113.937 18.5216C115.482 16.7299 116.319 13.9819 116.319 10.14H115.319C115.319 13.8581 114.506 16.3301 113.179 17.8684C111.864 19.393 109.974 20.08 107.629 20.08V21.08ZM116.319 10.14V9.45H115.319V10.14H116.319ZM115.453 9.10938C113.525 11.1817 110.952 12.4 108.349 12.4V13.4C111.266 13.4 114.094 12.0383 116.185 9.79062L115.453 9.10938ZM108.349 12.4C106.715 12.4 105.164 11.9234 104.03 10.9817C102.909 10.0503 102.159 8.63412 102.159 6.66H101.159C101.159 8.91588 102.03 10.6197 103.391 11.7508C104.74 12.8716 106.533 13.4 108.349 13.4V12.4ZM101.909 6.63C101.909 8.70072 102.679 10.2368 103.92 11.2445C105.147 12.2398 106.784 12.68 108.469 12.68V11.68C106.944 11.68 105.551 11.2802 104.551 10.468C103.565 9.66822 102.909 8.42928 102.909 6.63H101.909ZM108.469 12.68C111.329 12.68 114.196 11.2854 116.145 8.92857L115.374 8.29143C113.602 10.4346 111.01 11.68 108.469 11.68V12.68ZM116.257 8.56614C116.041 6.1094 115.287 4.08585 113.973 2.67106C112.65 1.24596 110.807 0.489998 108.529 0.489998V1.49C110.571 1.49 112.133 2.15903 113.24 3.35143C114.357 4.55415 115.058 6.3406 115.261 8.65386L116.257 8.56614ZM108.529 0.489998C106.727 0.489998 105.072 1.01191 103.86 2.05915C102.638 3.11439 101.909 4.66704 101.909 6.63H102.909C102.909 4.93296 103.53 3.66561 104.514 2.81585C105.507 1.95809 106.912 1.49 108.529 1.49V0.489998ZM121.415 20.22H120.915V20.5128L121.171 20.6561L121.415 20.22ZM121.415 19.5L121.664 19.0659L120.915 18.6384V19.5H121.415ZM133.895 9.45H134.395V8.17872L133.529 9.10938L133.895 9.45ZM133.835 8.61L134.221 8.92857L134.352 8.77048L134.334 8.56614L133.835 8.61ZM120.235 6.66C120.235 4.76923 120.938 3.31955 122.057 2.3369C123.183 1.34746 124.769 0.799998 126.575 0.799998V-0.200002C124.572 -0.200002 122.738 0.407534 121.397 1.5856C120.048 2.77044 119.235 4.50077 119.235 6.66H120.235ZM126.575 0.799998C129.114 0.799998 130.977 1.70558 132.22 3.28315C133.477 4.8785 134.145 7.2215 134.145 10.17H135.145C135.145 7.0885 134.449 4.4965 133.006 2.66434C131.548 0.814413 129.377 -0.200002 126.575 -0.200002V0.799998ZM134.145 10.17C134.145 14.0789 133.259 16.7238 131.805 18.3872C130.361 20.039 128.289 20.8 125.735 20.8V21.8C128.492 21.8 130.875 20.971 132.558 19.0453C134.232 17.1312 135.145 14.2111 135.145 10.17H134.145ZM125.735 20.8C124.225 20.8 122.811 20.4293 121.66 19.7839L121.171 20.6561C122.48 21.3907 124.066 21.8 125.735 21.8V20.8ZM121.915 20.22V19.5H120.915V20.22H121.915ZM121.167 19.9341C122.513 20.7033 124.161 21.08 125.705 21.08V20.08C124.309 20.08 122.837 19.7367 121.664 19.0659L121.167 19.9341ZM125.705 21.08C128.25 21.08 130.455 20.327 132.013 18.5216C133.558 16.7299 134.395 13.9819 134.395 10.14H133.395C133.395 13.8581 132.583 16.3301 131.256 17.8684C129.94 19.393 128.05 20.08 125.705 20.08V21.08ZM134.395 10.14V9.45H133.395V10.14H134.395ZM133.529 9.10938C131.601 11.1817 129.029 12.4 126.425 12.4V13.4C129.342 13.4 132.17 12.0383 134.262 9.79062L133.529 9.10938ZM126.425 12.4C124.792 12.4 123.24 11.9234 122.106 10.9817C120.985 10.0503 120.235 8.63412 120.235 6.66H119.235C119.235 8.91588 120.106 10.6197 121.467 11.7508C122.816 12.8716 124.609 13.4 126.425 13.4V12.4ZM119.985 6.63C119.985 8.70072 120.755 10.2368 121.997 11.2445C123.223 12.2398 124.861 12.68 126.545 12.68V11.68C125.02 11.68 123.628 11.2802 122.627 10.468C121.641 9.66822 120.985 8.42928 120.985 6.63H119.985ZM126.545 12.68C129.405 12.68 132.273 11.2854 134.221 8.92857L133.45 8.29143C131.678 10.4346 129.086 11.68 126.545 11.68V12.68ZM134.334 8.56614C134.117 6.1094 133.363 4.08585 132.049 2.67106C130.726 1.24596 128.884 0.489998 126.605 0.489998V1.49C128.647 1.49 130.21 2.15903 131.317 3.35143C132.433 4.55415 133.134 6.3406 133.337 8.65386L134.334 8.56614ZM126.605 0.489998C124.803 0.489998 123.148 1.01191 121.936 2.05915C120.715 3.11439 119.985 4.66704 119.985 6.63H120.985C120.985 4.93296 121.606 3.66561 122.59 2.81585C123.583 1.95809 124.988 1.49 126.605 1.49V0.489998ZM139.492 20.22H138.992V20.5128L139.247 20.6561L139.492 20.22ZM139.492 19.5L139.74 19.0659L138.992 18.6384V19.5H139.492ZM151.972 9.45H152.472V8.17872L151.606 9.10938L151.972 9.45ZM151.912 8.61L152.297 8.92857L152.428 8.77048L152.41 8.56614L151.912 8.61ZM138.312 6.66C138.312 4.76923 139.014 3.31955 140.133 2.3369C141.259 1.34746 142.845 0.799998 144.652 0.799998V-0.200002C142.649 -0.200002 140.814 0.407534 139.473 1.5856C138.124 2.77044 137.312 4.50077 137.312 6.66H138.312ZM144.652 0.799998C147.19 0.799998 149.054 1.70558 150.296 3.28315C151.553 4.8785 152.222 7.2215 152.222 10.17H153.222C153.222 7.0885 152.525 4.4965 151.082 2.66434C149.625 0.814413 147.454 -0.200002 144.652 -0.200002V0.799998ZM152.222 10.17C152.222 14.0789 151.336 16.7238 149.881 18.3872C148.437 20.039 146.365 20.8 143.812 20.8V21.8C146.568 21.8 148.951 20.971 150.634 19.0453C152.308 17.1312 153.222 14.2111 153.222 10.17H152.222ZM143.812 20.8C142.302 20.8 140.887 20.4293 139.736 19.7839L139.247 20.6561C140.557 21.3907 142.142 21.8 143.812 21.8V20.8ZM139.992 20.22V19.5H138.992V20.22H139.992ZM139.244 19.9341C140.59 20.7033 142.238 21.08 143.782 21.08V20.08C142.386 20.08 140.914 19.7367 139.74 19.0659L139.244 19.9341ZM143.782 21.08C146.327 21.08 148.532 20.327 150.089 18.5216C151.635 16.7299 152.472 13.9819 152.472 10.14H151.472C151.472 13.8581 150.659 16.3301 149.332 17.8684C148.017 19.393 146.127 20.08 143.782 20.08V21.08ZM152.472 10.14V9.45H151.472V10.14H152.472ZM151.606 9.10938C149.677 11.1817 147.105 12.4 144.502 12.4V13.4C147.418 13.4 150.246 12.0383 152.338 9.79062L151.606 9.10938ZM144.502 12.4C142.868 12.4 141.316 11.9234 140.182 10.9817C139.061 10.0503 138.312 8.63412 138.312 6.66H137.312C137.312 8.91588 138.182 10.6197 139.543 11.7508C140.892 12.8716 142.686 13.4 144.502 13.4V12.4ZM138.062 6.63C138.062 8.70072 138.831 10.2368 140.073 11.2445C141.299 12.2398 142.937 12.68 144.622 12.68V11.68C143.096 11.68 141.704 11.2802 140.703 10.468C139.717 9.66822 139.062 8.42928 139.062 6.63H138.062ZM144.622 12.68C147.481 12.68 150.349 11.2854 152.297 8.92857L151.526 8.29143C149.755 10.4346 147.162 11.68 144.622 11.68V12.68ZM152.41 8.56614C152.193 6.1094 151.439 4.08585 150.126 2.67106C148.803 1.24596 146.96 0.489998 144.682 0.489998V1.49C146.724 1.49 148.286 2.15903 149.393 3.35143C150.509 4.55415 151.21 6.3406 151.414 8.65386L152.41 8.56614ZM144.682 0.489998C142.879 0.489998 141.224 1.01191 140.012 2.05915C138.791 3.11439 138.062 4.66704 138.062 6.63H139.062C139.062 4.93296 139.682 3.66561 140.666 2.81585C141.659 1.95809 143.064 1.49 144.682 1.49V0.489998ZM166.928 13.38H167.428V12.88H166.928V13.38ZM166.928 14.07V14.57H167.428V14.07H166.928ZM156.638 14.07H156.138V14.57H156.638V14.07ZM156.638 13.38V12.88H156.138V13.38H156.638ZM166.428 13.38V14.07H167.428V13.38H166.428ZM166.928 13.57H156.638V14.57H166.928V13.57ZM157.138 14.07V13.38H156.138V14.07H157.138ZM156.638 13.88H166.928V12.88H156.638V13.88ZM171.484 20.22H170.984V20.5128L171.239 20.6561L171.484 20.22ZM171.484 19.5L171.732 19.0659L170.984 18.6384V19.5H171.484ZM183.964 9.45H184.464V8.17872L183.598 9.10938L183.964 9.45ZM183.904 8.61L184.289 8.92857L184.42 8.77048L184.402 8.56614L183.904 8.61ZM170.304 6.66C170.304 4.76923 171.006 3.31955 172.125 2.3369C173.251 1.34746 174.837 0.799998 176.644 0.799998V-0.200002C174.641 -0.200002 172.806 0.407534 171.465 1.5856C170.116 2.77044 169.304 4.50077 169.304 6.66H170.304ZM176.644 0.799998C179.182 0.799998 181.046 1.70558 182.289 3.28315C183.545 4.8785 184.214 7.2215 184.214 10.17H185.214C185.214 7.0885 184.517 4.4965 183.074 2.66434C181.617 0.814413 179.446 -0.200002 176.644 -0.200002V0.799998ZM184.214 10.17C184.214 14.0789 183.328 16.7238 181.874 18.3872C180.43 20.039 178.357 20.8 175.804 20.8V21.8C178.561 21.8 180.943 20.971 182.627 19.0453C184.3 17.1312 185.214 14.2111 185.214 10.17H184.214ZM175.804 20.8C174.294 20.8 172.879 20.4293 171.728 19.7839L171.239 20.6561C172.549 21.3907 174.134 21.8 175.804 21.8V20.8ZM171.984 20.22V19.5H170.984V20.22H171.984ZM171.236 19.9341C172.582 20.7033 174.23 21.08 175.774 21.08V20.08C174.378 20.08 172.906 19.7367 171.732 19.0659L171.236 19.9341ZM175.774 21.08C178.319 21.08 180.524 20.327 182.081 18.5216C183.627 16.7299 184.464 13.9819 184.464 10.14H183.464C183.464 13.8581 182.651 16.3301 181.324 17.8684C180.009 19.393 178.119 20.08 175.774 20.08V21.08ZM184.464 10.14V9.45H183.464V10.14H184.464ZM183.598 9.10938C181.669 11.1817 179.097 12.4 176.494 12.4V13.4C179.411 13.4 182.238 12.0383 184.33 9.79062L183.598 9.10938ZM176.494 12.4C174.86 12.4 173.308 11.9234 172.175 10.9817C171.054 10.0503 170.304 8.63412 170.304 6.66H169.304C169.304 8.91588 170.174 10.6197 171.536 11.7508C172.885 12.8716 174.678 13.4 176.494 13.4V12.4ZM170.054 6.63C170.054 8.70072 170.823 10.2368 172.065 11.2445C173.292 12.2398 174.929 12.68 176.614 12.68V11.68C175.089 11.68 173.696 11.2802 172.695 10.468C171.71 9.66822 171.054 8.42928 171.054 6.63H170.054ZM176.614 12.68C179.473 12.68 182.341 11.2854 184.289 8.92857L183.518 8.29143C181.747 10.4346 179.155 11.68 176.614 11.68V12.68ZM184.402 8.56614C184.186 6.1094 183.431 4.08585 182.118 2.67106C180.795 1.24596 178.952 0.489998 176.674 0.489998V1.49C178.716 1.49 180.278 2.15903 181.385 3.35143C182.501 4.55415 183.202 6.3406 183.406 8.65386L184.402 8.56614ZM176.674 0.489998C174.871 0.489998 173.217 1.01191 172.004 2.05915C170.783 3.11439 170.054 4.66704 170.054 6.63H171.054C171.054 4.93296 171.675 3.66561 172.658 2.81585C173.651 1.95809 175.056 1.49 176.674 1.49V0.489998ZM189.56 20.22H189.06V20.5128L189.315 20.6561L189.56 20.22ZM189.56 19.5L189.808 19.0659L189.06 18.6384V19.5H189.56ZM202.04 9.45H202.54V8.17872L201.674 9.10938L202.04 9.45ZM201.98 8.61L202.365 8.92857L202.496 8.77048L202.478 8.56614L201.98 8.61ZM188.38 6.66C188.38 4.76923 189.083 3.31955 190.201 2.3369C191.328 1.34746 192.913 0.799998 194.72 0.799998V-0.200002C192.717 -0.200002 190.882 0.407534 189.541 1.5856C188.192 2.77044 187.38 4.50077 187.38 6.66H188.38ZM194.72 0.799998C197.258 0.799998 199.122 1.70558 200.365 3.28315C201.621 4.8785 202.29 7.2215 202.29 10.17H203.29C203.29 7.0885 202.594 4.4965 201.15 2.66434C199.693 0.814413 197.522 -0.200002 194.72 -0.200002V0.799998ZM202.29 10.17C202.29 14.0789 201.404 16.7238 199.95 18.3872C198.506 20.039 196.433 20.8 193.88 20.8V21.8C196.637 21.8 199.019 20.971 200.703 19.0453C202.376 17.1312 203.29 14.2111 203.29 10.17H202.29ZM193.88 20.8C192.37 20.8 190.955 20.4293 189.805 19.7839L189.315 20.6561C190.625 21.3907 192.21 21.8 193.88 21.8V20.8ZM190.06 20.22V19.5H189.06V20.22H190.06ZM189.312 19.9341C190.658 20.7033 192.306 21.08 193.85 21.08V20.08C192.454 20.08 190.982 19.7367 189.808 19.0659L189.312 19.9341ZM193.85 21.08C196.395 21.08 198.6 20.327 200.157 18.5216C201.703 16.7299 202.54 13.9819 202.54 10.14H201.54C201.54 13.8581 200.727 16.3301 199.4 17.8684C198.085 19.393 196.195 20.08 193.85 20.08V21.08ZM202.54 10.14V9.45H201.54V10.14H202.54ZM201.674 9.10938C199.746 11.1817 197.173 12.4 194.57 12.4V13.4C197.487 13.4 200.314 12.0383 202.406 9.79062L201.674 9.10938ZM194.57 12.4C192.936 12.4 191.384 11.9234 190.251 10.9817C189.13 10.0503 188.38 8.63412 188.38 6.66H187.38C187.38 8.91588 188.25 10.6197 189.612 11.7508C190.961 12.8716 192.754 13.4 194.57 13.4V12.4ZM188.13 6.63C188.13 8.70072 188.899 10.2368 190.141 11.2445C191.368 12.2398 193.005 12.68 194.69 12.68V11.68C193.165 11.68 191.772 11.2802 190.771 10.468C189.786 9.66822 189.13 8.42928 189.13 6.63H188.13ZM194.69 12.68C197.549 12.68 200.417 11.2854 202.365 8.92857L201.595 8.29143C199.823 10.4346 197.231 11.68 194.69 11.68V12.68ZM202.478 8.56614C202.262 6.1094 201.507 4.08585 200.194 2.67106C198.871 1.24596 197.028 0.489998 194.75 0.489998V1.49C196.792 1.49 198.354 2.15903 199.461 3.35143C200.578 4.55415 201.278 6.3406 201.482 8.65386L202.478 8.56614ZM194.75 0.489998C192.947 0.489998 191.293 1.01191 190.081 2.05915C188.859 3.11439 188.13 4.66704 188.13 6.63H189.13C189.13 4.93296 189.751 3.66561 190.734 2.81585C191.727 1.95809 193.133 1.49 194.75 1.49V0.489998ZM216.996 13.38H217.496V12.88H216.996V13.38ZM216.996 14.07V14.57H217.496V14.07H216.996ZM206.706 14.07H206.206V14.57H206.706V14.07ZM206.706 13.38V12.88H206.206V13.38H206.706ZM216.496 13.38V14.07H217.496V13.38H216.496ZM216.996 13.57H206.706V14.57H216.996V13.57ZM207.206 14.07V13.38H206.206V14.07H207.206ZM206.706 13.88H216.996V12.88H206.706V13.88ZM221.552 20.22H221.052V20.5128L221.308 20.6561L221.552 20.22ZM221.552 19.5L221.8 19.0659L221.052 18.6384V19.5H221.552ZM234.032 9.45H234.532V8.17872L233.666 9.10938L234.032 9.45ZM233.972 8.61L234.358 8.92857L234.488 8.77048L234.47 8.56614L233.972 8.61ZM220.372 6.66C220.372 4.76923 221.075 3.31955 222.193 2.3369C223.32 1.34746 224.905 0.799998 226.712 0.799998V-0.200002C224.709 -0.200002 222.875 0.407534 221.533 1.5856C220.185 2.77044 219.372 4.50077 219.372 6.66H220.372ZM226.712 0.799998C229.25 0.799998 231.114 1.70558 232.357 3.28315C233.614 4.8785 234.282 7.2215 234.282 10.17H235.282C235.282 7.0885 234.586 4.4965 233.142 2.66434C231.685 0.814413 229.514 -0.200002 226.712 -0.200002V0.799998ZM234.282 10.17C234.282 14.0789 233.396 16.7238 231.942 18.3872C230.498 20.039 228.425 20.8 225.872 20.8V21.8C228.629 21.8 231.011 20.971 232.695 19.0453C234.368 17.1312 235.282 14.2111 235.282 10.17H234.282ZM225.872 20.8C224.362 20.8 222.947 20.4293 221.797 19.7839L221.308 20.6561C222.617 21.3907 224.202 21.8 225.872 21.8V20.8ZM222.052 20.22V19.5H221.052V20.22H222.052ZM221.304 19.9341C222.65 20.7033 224.298 21.08 225.842 21.08V20.08C224.446 20.08 222.974 19.7367 221.8 19.0659L221.304 19.9341ZM225.842 21.08C228.387 21.08 230.592 20.327 232.15 18.5216C233.695 16.7299 234.532 13.9819 234.532 10.14H233.532C233.532 13.8581 232.719 16.3301 231.392 17.8684C230.077 19.393 228.187 20.08 225.842 20.08V21.08ZM234.532 10.14V9.45H233.532V10.14H234.532ZM233.666 9.10938C231.738 11.1817 229.165 12.4 226.562 12.4V13.4C229.479 13.4 232.307 12.0383 234.398 9.79062L233.666 9.10938ZM226.562 12.4C224.928 12.4 223.377 11.9234 222.243 10.9817C221.122 10.0503 220.372 8.63412 220.372 6.66H219.372C219.372 8.91588 220.242 10.6197 221.604 11.7508C222.953 12.8716 224.746 13.4 226.562 13.4V12.4ZM220.122 6.63C220.122 8.70072 220.891 10.2368 222.133 11.2445C223.36 12.2398 224.997 12.68 226.682 12.68V11.68C225.157 11.68 223.764 11.2802 222.763 10.468C221.778 9.66822 221.122 8.42928 221.122 6.63H220.122ZM226.682 12.68C229.541 12.68 232.409 11.2854 234.358 8.92857L233.587 8.29143C231.815 10.4346 229.223 11.68 226.682 11.68V12.68ZM234.47 8.56614C234.254 6.1094 233.5 4.08585 232.186 2.67106C230.863 1.24596 229.02 0.489998 226.742 0.489998V1.49C228.784 1.49 230.346 2.15903 231.453 3.35143C232.57 4.55415 233.27 6.3406 233.474 8.65386L234.47 8.56614ZM226.742 0.489998C224.94 0.489998 223.285 1.01191 222.073 2.05915C220.851 3.11439 220.122 4.66704 220.122 6.63H221.122C221.122 4.93296 221.743 3.66561 222.727 2.81585C223.719 1.95809 225.125 1.49 226.742 1.49V0.489998ZM239.628 20.22H239.128V20.5128L239.384 20.6561L239.628 20.22ZM239.628 19.5L239.876 19.0659L239.128 18.6384V19.5H239.628ZM252.108 9.45H252.608V8.17872L251.742 9.10938L252.108 9.45ZM252.048 8.61L252.434 8.92857L252.564 8.77048L252.546 8.56614L252.048 8.61ZM238.448 6.66C238.448 4.76923 239.151 3.31955 240.27 2.3369C241.396 1.34746 242.981 0.799998 244.788 0.799998V-0.200002C242.785 -0.200002 240.951 0.407534 239.61 1.5856C238.261 2.77044 237.448 4.50077 237.448 6.66H238.448ZM244.788 0.799998C247.326 0.799998 249.19 1.70558 250.433 3.28315C251.69 4.8785 252.358 7.2215 252.358 10.17H253.358C253.358 7.0885 252.662 4.4965 251.219 2.66434C249.761 0.814413 247.59 -0.200002 244.788 -0.200002V0.799998ZM252.358 10.17C252.358 14.0789 251.472 16.7238 250.018 18.3872C248.574 20.039 246.502 20.8 243.948 20.8V21.8C246.705 21.8 249.088 20.971 250.771 19.0453C252.444 17.1312 253.358 14.2111 253.358 10.17H252.358ZM243.948 20.8C242.438 20.8 241.023 20.4293 239.873 19.7839L239.384 20.6561C240.693 21.3907 242.278 21.8 243.948 21.8V20.8ZM240.128 20.22V19.5H239.128V20.22H240.128ZM239.38 19.9341C240.726 20.7033 242.374 21.08 243.918 21.08V20.08C242.522 20.08 241.05 19.7367 239.876 19.0659L239.38 19.9341ZM243.918 21.08C246.463 21.08 248.668 20.327 250.226 18.5216C251.771 16.7299 252.608 13.9819 252.608 10.14H251.608C251.608 13.8581 250.795 16.3301 249.469 17.8684C248.153 19.393 246.263 20.08 243.918 20.08V21.08ZM252.608 10.14V9.45H251.608V10.14H252.608ZM251.742 9.10938C249.814 11.1817 247.242 12.4 244.638 12.4V13.4C247.555 13.4 250.383 12.0383 252.474 9.79062L251.742 9.10938ZM244.638 12.4C243.004 12.4 241.453 11.9234 240.319 10.9817C239.198 10.0503 238.448 8.63412 238.448 6.66H237.448C237.448 8.91588 238.319 10.6197 239.68 11.7508C241.029 12.8716 242.822 13.4 244.638 13.4V12.4ZM238.198 6.63C238.198 8.70072 238.968 10.2368 240.21 11.2445C241.436 12.2398 243.074 12.68 244.758 12.68V11.68C243.233 11.68 241.841 11.2802 240.84 10.468C239.854 9.66822 239.198 8.42928 239.198 6.63H238.198ZM244.758 12.68C247.618 12.68 250.485 11.2854 252.434 8.92857L251.663 8.29143C249.891 10.4346 247.299 11.68 244.758 11.68V12.68ZM252.546 8.56614C252.33 6.1094 251.576 4.08585 250.262 2.67106C248.939 1.24596 247.096 0.489998 244.818 0.489998V1.49C246.86 1.49 248.422 2.15903 249.529 3.35143C250.646 4.55415 251.347 6.3406 251.55 8.65386L252.546 8.56614ZM244.818 0.489998C243.016 0.489998 241.361 1.01191 240.149 2.05915C238.928 3.11439 238.198 4.66704 238.198 6.63H239.198C239.198 4.93296 239.819 3.66561 240.803 2.81585C241.796 1.95809 243.201 1.49 244.818 1.49V0.489998Z" fill="white" mask="url(#path-1-outside-1_712_110)"/>
</svg>
