<svg width="44" height="44" viewBox="0 0 44 44" fill="none" xmlns="http://www.w3.org/2000/svg">
<path d="M14.5 24.5L22 32M22 32L29.5 24.5M22 32V12M10 42H34C36.8002 42 38.2005 42 39.27 41.455C40.2108 40.9757 40.9757 40.2108 41.455 39.27C42 38.2005 42 36.8002 42 34V10C42 7.19975 42 5.7996 41.455 4.73005C40.9757 3.78923 40.2108 3.02432 39.27 2.54497C38.2005 2 36.8002 2 34 2H10C7.19975 2 5.7996 2 4.73005 2.54497C3.78923 3.02432 3.02432 3.78923 2.54497 4.73005C2 5.7996 2 7.19972 2 10V34C2 36.8002 2 38.2005 2.54497 39.27C3.02432 40.2108 3.78923 40.9757 4.73005 41.455C5.7996 42 7.19972 42 10 42Z" stroke="#E16823" stroke-width="3" stroke-linecap="round" stroke-linejoin="round"/>
</svg>
