<svg width="118" height="157" viewBox="0 0 118 157" fill="none" xmlns="http://www.w3.org/2000/svg">
<mask id="path-1-outside-1_875_223" maskUnits="userSpaceOnUse" x="-1" y="118" width="118" height="39" fill="black">
<rect fill="white" x="-1" y="118" width="118" height="39"/>
<path d="M0.64 147L13.52 119H14.68L27.52 147H26.44L22.48 138.4H5.68L1.72 147H0.64ZM6.12 137.44H22.12L14.4 120.6C14.28 120.36 14.2 120.16 14.12 119.96C14.04 120.16 13.96 120.36 13.84 120.6L6.12 137.44ZM46.1931 127.8H47.2331L37.0331 150.52C35.1531 154.76 33.1931 156.2 30.6731 156.2C30.0331 156.2 29.3931 156.12 28.7131 155.96V155.08C29.3531 155.24 29.9931 155.32 30.5931 155.32C32.9931 155.32 34.6731 153.72 36.2331 150.08L37.5531 147.08L27.6331 127.8H28.6731L38.0331 146L46.1931 127.8ZM47.5206 152.52V146.12H49.9606C52.4806 140.96 53.7206 135.96 53.7206 127.8H66.6406V146.12H69.4006V152.52H68.4406V147H48.4806V152.52H47.5206ZM54.6806 128.68C54.6406 136.36 53.3206 141.16 51.0006 146.12H65.7206V128.68H54.6806ZM74.0241 147V127.8H74.9841V145.52L89.7441 127.8H90.6641V147H89.7041V129.28L74.9441 147H74.0241ZM95.9834 137.4C95.9834 131 100.703 127.4 105.863 127.4C111.063 127.4 115.743 131 115.743 137.4C115.743 143.8 111.063 147.4 105.863 147.4C100.703 147.4 95.9834 143.8 95.9834 137.4ZM114.783 137.4C114.783 131.6 110.623 128.32 105.863 128.32C101.103 128.32 96.9434 131.6 96.9434 137.4C96.9434 143.2 101.103 146.48 105.863 146.48C110.623 146.48 114.783 143.2 114.783 137.4Z"/>
</mask>
<path d="M0.64 147L13.52 119H14.68L27.52 147H26.44L22.48 138.4H5.68L1.72 147H0.64ZM6.12 137.44H22.12L14.4 120.6C14.28 120.36 14.2 120.16 14.12 119.96C14.04 120.16 13.96 120.36 13.84 120.6L6.12 137.44ZM46.1931 127.8H47.2331L37.0331 150.52C35.1531 154.76 33.1931 156.2 30.6731 156.2C30.0331 156.2 29.3931 156.12 28.7131 155.96V155.08C29.3531 155.24 29.9931 155.32 30.5931 155.32C32.9931 155.32 34.6731 153.72 36.2331 150.08L37.5531 147.08L27.6331 127.8H28.6731L38.0331 146L46.1931 127.8ZM47.5206 152.52V146.12H49.9606C52.4806 140.96 53.7206 135.96 53.7206 127.8H66.6406V146.12H69.4006V152.52H68.4406V147H48.4806V152.52H47.5206ZM54.6806 128.68C54.6406 136.36 53.3206 141.16 51.0006 146.12H65.7206V128.68H54.6806ZM74.0241 147V127.8H74.9841V145.52L89.7441 127.8H90.6641V147H89.7041V129.28L74.9441 147H74.0241ZM95.9834 137.4C95.9834 131 100.703 127.4 105.863 127.4C111.063 127.4 115.743 131 115.743 137.4C115.743 143.8 111.063 147.4 105.863 147.4C100.703 147.4 95.9834 143.8 95.9834 137.4ZM114.783 137.4C114.783 131.6 110.623 128.32 105.863 128.32C101.103 128.32 96.9434 131.6 96.9434 137.4C96.9434 143.2 101.103 146.48 105.863 146.48C110.623 146.48 114.783 143.2 114.783 137.4Z" fill="white" fill-opacity="0.4"/>
<path d="M0.64 147L0.185755 146.791L-0.140363 147.5H0.64V147ZM13.52 119V118.5H13.1996L13.0658 118.791L13.52 119ZM14.68 119L15.1345 118.792L15.0008 118.5H14.68V119ZM27.52 147V147.5H28.2994L27.9745 146.792L27.52 147ZM26.44 147L25.9858 147.209L26.1198 147.5H26.44V147ZM22.48 138.4L22.9342 138.191L22.8002 137.9H22.48V138.4ZM5.68 138.4V137.9H5.35977L5.22584 138.191L5.68 138.4ZM1.72 147V147.5H2.04023L2.17417 147.209L1.72 147ZM6.12 137.44L5.66548 137.232L5.34075 137.94H6.12V137.44ZM22.12 137.44V137.94H22.8993L22.5745 137.232L22.12 137.44ZM14.4 120.6L14.8545 120.392L14.851 120.384L14.8472 120.376L14.4 120.6ZM14.12 119.96L14.5842 119.774L14.12 118.614L13.6558 119.774L14.12 119.96ZM13.84 120.6L13.3928 120.376L13.389 120.384L13.3855 120.392L13.84 120.6ZM1.09425 147.209L13.9742 119.209L13.0658 118.791L0.185755 146.791L1.09425 147.209ZM13.52 119.5H14.68V118.5H13.52V119.5ZM14.2255 119.208L27.0655 147.208L27.9745 146.792L15.1345 118.792L14.2255 119.208ZM27.52 146.5H26.44V147.5H27.52V146.5ZM26.8942 146.791L22.9342 138.191L22.0258 138.609L25.9858 147.209L26.8942 146.791ZM22.48 137.9H5.68V138.9H22.48V137.9ZM5.22584 138.191L1.26584 146.791L2.17417 147.209L6.13417 138.609L5.22584 138.191ZM1.72 146.5H0.64V147.5H1.72V146.5ZM6.12 137.94H22.12V136.94H6.12V137.94ZM22.5745 137.232L14.8545 120.392L13.9455 120.808L21.6655 137.648L22.5745 137.232ZM14.8472 120.376C14.7375 120.157 14.6642 119.974 14.5842 119.774L13.6558 120.146C13.7358 120.346 13.8225 120.563 13.9528 120.824L14.8472 120.376ZM13.6558 119.774C13.5758 119.974 13.5025 120.157 13.3928 120.376L14.2872 120.824C14.4175 120.563 14.5042 120.346 14.5842 120.146L13.6558 119.774ZM13.3855 120.392L5.66548 137.232L6.57452 137.648L14.2945 120.808L13.3855 120.392ZM46.1931 127.8V127.3H45.8693L45.7369 127.595L46.1931 127.8ZM47.2331 127.8L47.6893 128.005L48.0057 127.3H47.2331V127.8ZM37.0331 150.52L36.577 150.315L36.576 150.317L37.0331 150.52ZM28.7131 155.96H28.2131V156.356L28.5986 156.447L28.7131 155.96ZM28.7131 155.08L28.8344 154.595L28.2131 154.44V155.08H28.7131ZM36.2331 150.08L35.7754 149.879L35.7736 149.883L36.2331 150.08ZM37.5531 147.08L38.0108 147.281L38.1068 147.063L37.9977 146.851L37.5531 147.08ZM27.6331 127.8V127.3H26.8136L27.1885 128.029L27.6331 127.8ZM28.6731 127.8L29.1178 127.571L28.9782 127.3H28.6731V127.8ZM38.0331 146L37.5885 146.229L38.064 147.153L38.4894 146.205L38.0331 146ZM46.1931 128.3H47.2331V127.3H46.1931V128.3ZM46.777 127.595L36.577 150.315L37.4893 150.725L47.6893 128.005L46.777 127.595ZM36.576 150.317C35.6502 152.405 34.7274 153.749 33.768 154.57C32.8256 155.377 31.8234 155.7 30.6731 155.7V156.7C32.0429 156.7 33.2807 156.303 34.4182 155.33C35.5388 154.371 36.5361 152.875 37.4902 150.723L36.576 150.317ZM30.6731 155.7C30.0762 155.7 29.4748 155.626 28.8276 155.473L28.5986 156.447C29.3115 156.614 29.9901 156.7 30.6731 156.7V155.7ZM29.2131 155.96V155.08H28.2131V155.96H29.2131ZM28.5919 155.565C29.269 155.734 29.9497 155.82 30.5931 155.82V154.82C30.0365 154.82 29.4373 154.746 28.8344 154.595L28.5919 155.565ZM30.5931 155.82C31.9222 155.82 33.0636 155.37 34.0695 154.43C35.0581 153.507 35.9013 152.124 36.6927 150.277L35.7736 149.883C35.0049 151.676 34.2282 152.913 33.3868 153.7C32.5626 154.47 31.664 154.82 30.5931 154.82V155.82ZM36.6908 150.281L38.0108 147.281L37.0955 146.879L35.7755 149.879L36.6908 150.281ZM37.9977 146.851L28.0777 127.571L27.1885 128.029L37.1085 147.309L37.9977 146.851ZM27.6331 128.3H28.6731V127.3H27.6331V128.3ZM28.2285 128.029L37.5885 146.229L38.4778 145.771L29.1178 127.571L28.2285 128.029ZM38.4894 146.205L46.6494 128.005L45.7369 127.595L37.5769 145.795L38.4894 146.205ZM47.5206 152.52H47.0206V153.02H47.5206V152.52ZM47.5206 146.12V145.62H47.0206V146.12H47.5206ZM49.9606 146.12V146.62H50.2729L50.4099 146.339L49.9606 146.12ZM53.7206 127.8V127.3H53.2206V127.8H53.7206ZM66.6406 127.8H67.1406V127.3H66.6406V127.8ZM66.6406 146.12H66.1406V146.62H66.6406V146.12ZM69.4006 146.12H69.9006V145.62H69.4006V146.12ZM69.4006 152.52V153.02H69.9006V152.52H69.4006ZM68.4406 152.52H67.9406V153.02H68.4406V152.52ZM68.4406 147H68.9406V146.5H68.4406V147ZM48.4806 147V146.5H47.9806V147H48.4806ZM48.4806 152.52V153.02H48.9806V152.52H48.4806ZM54.6806 128.68V128.18H54.1832L54.1806 128.677L54.6806 128.68ZM51.0006 146.12L50.5477 145.908L50.2148 146.62H51.0006V146.12ZM65.7206 146.12V146.62H66.2206V146.12H65.7206ZM65.7206 128.68H66.2206V128.18H65.7206V128.68ZM48.0206 152.52V146.12H47.0206V152.52H48.0206ZM47.5206 146.62H49.9606V145.62H47.5206V146.62ZM50.4099 146.339C52.9679 141.102 54.2206 136.025 54.2206 127.8H53.2206C53.2206 135.895 51.9934 140.818 49.5113 145.901L50.4099 146.339ZM53.7206 128.3H66.6406V127.3H53.7206V128.3ZM66.1406 127.8V146.12H67.1406V127.8H66.1406ZM66.6406 146.62H69.4006V145.62H66.6406V146.62ZM68.9006 146.12V152.52H69.9006V146.12H68.9006ZM69.4006 152.02H68.4406V153.02H69.4006V152.02ZM68.9406 152.52V147H67.9406V152.52H68.9406ZM68.4406 146.5H48.4806V147.5H68.4406V146.5ZM47.9806 147V152.52H48.9806V147H47.9806ZM48.4806 152.02H47.5206V153.02H48.4806V152.02ZM54.1806 128.677C54.141 136.285 52.837 141.014 50.5477 145.908L51.4535 146.332C53.8042 141.306 55.1402 136.435 55.1806 128.683L54.1806 128.677ZM51.0006 146.62H65.7206V145.62H51.0006V146.62ZM66.2206 146.12V128.68H65.2206V146.12H66.2206ZM65.7206 128.18H54.6806V129.18H65.7206V128.18ZM74.0241 147H73.5241V147.5H74.0241V147ZM74.0241 127.8V127.3H73.5241V127.8H74.0241ZM74.9841 127.8H75.4841V127.3H74.9841V127.8ZM74.9841 145.52H74.4841V146.902L75.3682 145.84L74.9841 145.52ZM89.7441 127.8V127.3H89.5098L89.3599 127.48L89.7441 127.8ZM90.6641 127.8H91.1641V127.3H90.6641V127.8ZM90.6641 147V147.5H91.1641V147H90.6641ZM89.7041 147H89.2041V147.5H89.7041V147ZM89.7041 129.28H90.2041V127.898L89.3199 128.96L89.7041 129.28ZM74.9441 147V147.5H75.1783L75.3282 147.32L74.9441 147ZM74.5241 147V127.8H73.5241V147H74.5241ZM74.0241 128.3H74.9841V127.3H74.0241V128.3ZM74.4841 127.8V145.52H75.4841V127.8H74.4841ZM75.3682 145.84L90.1282 128.12L89.3599 127.48L74.5999 145.2L75.3682 145.84ZM89.7441 128.3H90.6641V127.3H89.7441V128.3ZM90.1641 127.8V147H91.1641V127.8H90.1641ZM90.6641 146.5H89.7041V147.5H90.6641V146.5ZM90.2041 147V129.28H89.2041V147H90.2041ZM89.3199 128.96L74.5599 146.68L75.3282 147.32L90.0882 129.6L89.3199 128.96ZM74.9441 146.5H74.0241V147.5H74.9441V146.5ZM96.4834 137.4C96.4834 131.309 100.946 127.9 105.863 127.9V126.9C100.461 126.9 95.4834 130.691 95.4834 137.4H96.4834ZM105.863 127.9C108.35 127.9 110.694 128.76 112.412 130.365C114.125 131.965 115.243 134.33 115.243 137.4H116.243C116.243 134.07 115.022 131.435 113.095 129.635C111.173 127.84 108.577 126.9 105.863 126.9V127.9ZM115.243 137.4C115.243 140.47 114.125 142.835 112.412 144.435C110.694 146.04 108.35 146.9 105.863 146.9V147.9C108.577 147.9 111.173 146.96 113.095 145.165C115.022 143.365 116.243 140.73 116.243 137.4H115.243ZM105.863 146.9C100.946 146.9 96.4834 143.491 96.4834 137.4H95.4834C95.4834 144.109 100.461 147.9 105.863 147.9V146.9ZM115.283 137.4C115.283 134.373 114.194 131.968 112.452 130.322C110.714 128.68 108.357 127.82 105.863 127.82V128.82C108.13 128.82 110.233 129.6 111.765 131.048C113.292 132.492 114.283 134.627 114.283 137.4H115.283ZM105.863 127.82C103.37 127.82 101.013 128.68 99.275 130.322C97.5324 131.968 96.4434 134.373 96.4434 137.4H97.4434C97.4434 134.627 98.4345 132.492 99.9618 131.048C101.494 129.6 103.597 128.82 105.863 128.82V127.82ZM96.4434 137.4C96.4434 140.427 97.5324 142.832 99.275 144.478C101.013 146.12 103.37 146.98 105.863 146.98V145.98C103.597 145.98 101.494 145.2 99.9618 143.752C98.4345 142.308 97.4434 140.173 97.4434 137.4H96.4434ZM105.863 146.98C108.357 146.98 110.714 146.12 112.452 144.478C114.194 142.832 115.283 140.427 115.283 137.4H114.283C114.283 140.173 113.292 142.308 111.765 143.752C110.233 145.2 108.13 145.98 105.863 145.98V146.98Z" fill="white" fill-opacity="0.73" mask="url(#path-1-outside-1_875_223)"/>
<path d="M18.6963 50.3955L27.8113 45.133L33.8649 46.7551L43.8369 64.0256L42.2148 70.0797L32.9535 75.4258C29.1561 72.3005 25.9535 68.516 23.4995 64.2538C12.179 44.6466 18.8957 19.1364 38.5035 7.81537C51.9331 0.0615444 66.0668 0.0615444 79.4964 7.81537C99.1037 19.1359 105.821 44.6471 94.501 64.2544C92.0468 68.5164 88.8443 72.301 85.047 75.4264L75.7857 70.0803L74.1636 64.0261L84.1351 46.7551L90.1887 45.133L99.3042 50.396" stroke="white" stroke-width="3.75" stroke-linecap="round" stroke-linejoin="round"/>
</svg>
