<svg width="31" height="34" viewBox="0 0 31 34" fill="none" xmlns="http://www.w3.org/2000/svg">
<path fill-rule="evenodd" clip-rule="evenodd" d="M15.4999 3.4C12.7312 3.4 10.4866 5.68336 10.4866 8.5H20.5133C20.5133 5.68336 18.2688 3.4 15.4999 3.4ZM7.14437 8.5C7.14437 3.80559 10.8853 0 15.4999 0C20.1147 0 23.8555 3.80559 23.8555 8.5H22.7594C23.4868 8.50009 24.1227 8.50221 24.6561 8.5442C25.2541 8.59127 25.8473 8.69508 26.4319 8.96968C27.2764 9.36634 27.9959 9.99418 28.5096 10.783C28.8654 11.3291 29.0564 11.9097 29.1931 12.5037C29.3216 13.0624 29.4243 13.7421 29.5425 14.5234L30.2962 19.5077C30.6182 21.6364 30.8765 23.3442 30.9655 24.7297C31.0565 26.1491 30.986 27.411 30.5296 28.5976C29.841 30.3878 28.5759 31.8878 26.9412 32.8525C25.8577 33.4919 24.6424 33.7545 23.2497 33.8788C21.8901 34 20.1914 34 18.0744 34H12.9255C10.8085 34 9.10988 34 7.75032 33.8788C6.35747 33.7545 5.14222 33.4919 4.05875 32.8525C2.42402 31.8878 1.15903 30.3878 0.470346 28.5976C0.0138963 27.411 -0.0565081 26.1491 0.034568 24.7297C0.123455 23.3444 0.38176 21.6364 0.703685 19.5078L1.45751 14.5234C1.57564 13.7421 1.6784 13.0624 1.80691 12.5037C1.94357 11.9097 2.1346 11.3291 2.49031 10.783C3.0041 9.99418 3.7235 9.36634 4.56804 8.96968C5.15271 8.69508 5.74582 8.59127 6.34379 8.5442C6.87727 8.50221 7.51315 8.50009 8.24054 8.5H7.14437ZM6.60164 11.9341C6.20513 11.9653 6.05101 12.018 5.969 12.0566C5.6875 12.1888 5.4477 12.3981 5.27644 12.661C5.22656 12.7376 5.15184 12.8845 5.06123 13.2784C4.96573 13.6936 4.88164 14.2419 4.75184 15.1001L4.01902 19.9458C3.68239 22.1717 3.44793 23.7322 3.36971 24.9512C3.29257 26.1535 3.38383 26.8413 3.58276 27.3584C3.99598 28.4327 4.75497 29.3326 5.73581 29.9115C6.20801 30.1901 6.86247 30.3865 8.04228 30.4917C9.23859 30.5985 10.7904 30.6 13.0042 30.6H17.9957C20.2096 30.6 21.7614 30.5985 22.9576 30.4917C24.1374 30.3865 24.792 30.1901 25.2641 29.9115C26.245 29.3326 27.0039 28.4327 27.4172 27.3584C27.6162 26.8413 27.7074 26.1535 27.6302 24.9512C27.552 23.7322 27.3176 22.1717 26.981 19.9458L26.248 15.1001C26.1184 14.2419 26.0341 13.6936 25.9387 13.2784C25.8481 12.8845 25.7734 12.7376 25.7235 12.661C25.5522 12.3981 25.3124 12.1888 25.031 12.0566C24.9489 12.018 24.7948 11.9653 24.3983 11.9341C23.9805 11.9012 23.4349 11.9 22.5814 11.9H8.4186C7.56504 11.9 7.01952 11.9012 6.60164 11.9341Z" fill="#FF6B00"/>
</svg>
