<svg width="22" height="24" viewBox="0 0 22 24" fill="none" xmlns="http://www.w3.org/2000/svg">
<path fill-rule="evenodd" clip-rule="evenodd" d="M10.9999 2.4C9.03503 2.4 7.44211 4.01178 7.44211 6H14.5578C14.5578 4.01178 12.9649 2.4 10.9999 2.4ZM5.0702 6C5.0702 2.6863 7.72506 0 10.9999 0C14.2749 0 16.9297 2.6863 16.9297 6H16.1518C16.6681 6.00006 17.1193 6.00156 17.4979 6.0312C17.9222 6.06443 18.3433 6.1377 18.7581 6.33154C19.3575 6.61153 19.868 7.05472 20.2326 7.61153C20.4851 7.99702 20.6206 8.40683 20.7177 8.82617C20.8089 9.2205 20.8818 9.70031 20.9656 10.2518L21.5005 13.7701C21.729 15.2728 21.9124 16.4783 21.9755 17.4563C22.0401 18.4582 21.9901 19.3489 21.6662 20.1865C21.1775 21.4502 20.2797 22.509 19.1196 23.19C18.3506 23.6413 17.4882 23.8267 16.4998 23.9144C15.5349 24 14.3294 24 12.827 24H9.17296C7.67055 24 6.46507 24 5.50023 23.9144C4.51175 23.8267 3.64931 23.6413 2.8804 23.19C1.72027 22.509 0.822539 21.4502 0.333794 20.1865C0.0098619 19.3489 -0.0401026 18.4582 0.0245321 17.4563C0.0876131 16.4784 0.270927 15.2728 0.499389 13.7702L1.03436 10.2518C1.1182 9.7003 1.19112 9.2205 1.28232 8.82617C1.37931 8.40683 1.51488 7.99702 1.76732 7.61153C2.13194 7.05472 2.64248 6.61153 3.24183 6.33154C3.65676 6.1377 4.07768 6.06443 4.50204 6.0312C4.88065 6.00156 5.33192 6.00006 5.84813 6H5.0702ZM4.68503 8.42405C4.40364 8.44608 4.29426 8.48333 4.23607 8.51051C4.03629 8.60384 3.86611 8.75158 3.74457 8.93718C3.70917 8.99124 3.65615 9.09497 3.59184 9.37302C3.52407 9.66607 3.46439 10.0531 3.37227 10.6589L2.85221 14.0794C2.61331 15.6506 2.44692 16.7521 2.39141 17.6126C2.33666 18.4613 2.40143 18.9468 2.5426 19.3118C2.83586 20.0701 3.37449 20.7054 4.07058 21.114C4.40568 21.3107 4.87014 21.4493 5.70742 21.5236C6.55642 21.5989 7.65767 21.6 9.22882 21.6H12.7711C14.3423 21.6 15.4436 21.5989 16.2925 21.5236C17.1298 21.4493 17.5943 21.3107 17.9294 21.114C18.6255 20.7054 19.1641 20.0701 19.4573 19.3118C19.5986 18.9468 19.6633 18.4613 19.6085 17.6126C19.553 16.7521 19.3867 15.6506 19.1478 14.0794L18.6276 10.6589C18.5356 10.0531 18.4758 9.66608 18.4081 9.37302C18.3438 9.09497 18.2908 8.99124 18.2554 8.93718C18.1338 8.75158 17.9636 8.60384 17.7639 8.51051C17.7057 8.48333 17.5963 8.44608 17.3149 8.42405C17.0184 8.40083 16.6312 8.4 16.0255 8.4H5.97449C5.36874 8.4 4.9816 8.40083 4.68503 8.42405Z" fill="#8E8E8E" fill-opacity="0.78"/>
</svg>
