<svg width="636" height="56" viewBox="0 0 636 56" fill="none" xmlns="http://www.w3.org/2000/svg">
<rect width="636" height="56" rx="28" fill="#FF6B00"/>
<mask id="path-2-outside-1_865_217" maskUnits="userSpaceOnUse" x="262" y="14" width="83" height="23" fill="black">
<rect fill="white" x="262" y="14" width="83" height="23"/>
<path d="M270.71 15C274.79 15 277.73 16.59 277.73 20.25C277.73 23.01 275.66 24.6 273.53 24.96C275.63 25.32 278.54 26.58 278.57 30.36C278.6 35.34 273.8 36 270.47 36H263.15V15H270.71ZM276.98 20.31C276.98 17.04 274.43 15.72 270.68 15.72H263.9V24.63H271.76C274.4 24.63 276.98 23.07 276.98 20.31ZM277.82 30.3C277.79 26.04 273.68 25.35 271.46 25.35H263.9V35.28H270.38C273.62 35.28 277.85 34.8 277.82 30.3ZM281.714 28.8C281.714 24 285.254 21.3 289.124 21.3C293.024 21.3 296.534 24 296.534 28.8C296.534 33.6 293.024 36.3 289.124 36.3C285.254 36.3 281.714 33.6 281.714 28.8ZM295.814 28.8C295.814 24.45 292.694 21.99 289.124 21.99C285.554 21.99 282.434 24.45 282.434 28.8C282.434 33.15 285.554 35.61 289.124 35.61C292.694 35.61 295.814 33.15 295.814 28.8ZM310.478 17.88C309.398 18.78 308.168 19.11 306.758 19.11C305.348 19.11 304.118 18.78 303.038 17.88V17.13C304.208 18.12 305.378 18.45 306.758 18.45C308.138 18.45 309.308 18.12 310.478 17.13V17.88ZM300.518 36V21.6H301.238V34.89L312.308 21.6H312.998V36H312.278V22.71L301.208 36H300.518ZM321.908 36V22.29H315.938V21.6H328.628V22.29H322.628V36H321.908ZM331.573 36V21.6H332.293V34.89L343.363 21.6H344.053V36H343.333V22.71L332.263 36H331.573Z"/>
</mask>
<path d="M270.71 15C274.79 15 277.73 16.59 277.73 20.25C277.73 23.01 275.66 24.6 273.53 24.96C275.63 25.32 278.54 26.58 278.57 30.36C278.6 35.34 273.8 36 270.47 36H263.15V15H270.71ZM276.98 20.31C276.98 17.04 274.43 15.72 270.68 15.72H263.9V24.63H271.76C274.4 24.63 276.98 23.07 276.98 20.31ZM277.82 30.3C277.79 26.04 273.68 25.35 271.46 25.35H263.9V35.28H270.38C273.62 35.28 277.85 34.8 277.82 30.3ZM281.714 28.8C281.714 24 285.254 21.3 289.124 21.3C293.024 21.3 296.534 24 296.534 28.8C296.534 33.6 293.024 36.3 289.124 36.3C285.254 36.3 281.714 33.6 281.714 28.8ZM295.814 28.8C295.814 24.45 292.694 21.99 289.124 21.99C285.554 21.99 282.434 24.45 282.434 28.8C282.434 33.15 285.554 35.61 289.124 35.61C292.694 35.61 295.814 33.15 295.814 28.8ZM310.478 17.88C309.398 18.78 308.168 19.11 306.758 19.11C305.348 19.11 304.118 18.78 303.038 17.88V17.13C304.208 18.12 305.378 18.45 306.758 18.45C308.138 18.45 309.308 18.12 310.478 17.13V17.88ZM300.518 36V21.6H301.238V34.89L312.308 21.6H312.998V36H312.278V22.71L301.208 36H300.518ZM321.908 36V22.29H315.938V21.6H328.628V22.29H322.628V36H321.908ZM331.573 36V21.6H332.293V34.89L343.363 21.6H344.053V36H343.333V22.71L332.263 36H331.573Z" fill="white"/>
<path d="M273.53 24.96L273.413 24.2698L273.412 25.6499L273.53 24.96ZM278.57 30.36L279.27 30.3558L279.27 30.3544L278.57 30.36ZM263.15 36H262.45V36.7H263.15V36ZM263.15 15V14.3H262.45V15H263.15ZM263.9 15.72V15.02H263.2V15.72H263.9ZM263.9 24.63H263.2V25.33H263.9V24.63ZM277.82 30.3L278.52 30.2953L278.52 30.2951L277.82 30.3ZM263.9 25.35V24.65H263.2V25.35H263.9ZM263.9 35.28H263.2V35.98H263.9V35.28ZM270.71 15.7C272.676 15.7 274.271 16.0858 275.354 16.8295C276.398 17.547 277.03 18.638 277.03 20.25H278.43C278.43 18.202 277.592 16.668 276.146 15.6755C274.739 14.7092 272.824 14.3 270.71 14.3V15.7ZM277.03 20.25C277.03 22.5739 275.309 23.9494 273.413 24.2698L273.647 25.6502C276.011 25.2506 278.43 23.4461 278.43 20.25H277.03ZM273.412 25.6499C274.395 25.8184 275.513 26.1905 276.377 26.9141C277.214 27.6155 277.857 28.6817 277.87 30.3656L279.27 30.3544C279.253 28.2583 278.426 26.8045 277.276 25.8409C276.152 24.8995 274.765 24.4616 273.648 24.2701L273.412 25.6499ZM277.87 30.3642C277.877 31.492 277.612 32.3281 277.199 32.9594C276.785 33.5938 276.192 34.0673 275.473 34.4185C274.011 35.1326 272.113 35.3 270.47 35.3V36.7C272.157 36.7 274.324 36.5374 276.087 35.6765C276.981 35.2402 277.79 34.6149 278.371 33.725C278.955 32.8319 279.278 31.718 279.27 30.3558L277.87 30.3642ZM270.47 35.3H263.15V36.7H270.47V35.3ZM263.85 36V15H262.45V36H263.85ZM263.15 15.7H270.71V14.3H263.15V15.7ZM277.68 20.31C277.68 18.462 276.942 17.0864 275.625 16.2066C274.353 15.3575 272.617 15.02 270.68 15.02V16.42C272.493 16.42 273.907 16.7425 274.848 17.3709C275.743 17.9686 276.28 18.888 276.28 20.31H277.68ZM270.68 15.02H263.9V16.42H270.68V15.02ZM263.2 15.72V24.63H264.6V15.72H263.2ZM263.9 25.33H271.76V23.93H263.9V25.33ZM271.76 25.33C273.208 25.33 274.667 24.9039 275.781 24.064C276.911 23.2127 277.68 21.9349 277.68 20.31H276.28C276.28 21.4451 275.759 22.3273 274.939 22.946C274.103 23.5761 272.952 23.93 271.76 23.93V25.33ZM278.52 30.2951C278.503 27.8809 277.301 26.4234 275.793 25.6112C274.337 24.8267 272.62 24.65 271.46 24.65V26.05C272.52 26.05 273.968 26.2183 275.129 26.8438C276.239 27.4416 277.107 28.4591 277.12 30.3049L278.52 30.2951ZM271.46 24.65H263.9V26.05H271.46V24.65ZM263.2 25.35V35.28H264.6V25.35H263.2ZM263.9 35.98H270.38V34.58H263.9V35.98ZM270.38 35.98C272.007 35.98 274.012 35.8651 275.623 35.1115C276.443 34.728 277.183 34.1692 277.712 33.3595C278.242 32.5478 278.528 31.5338 278.52 30.2953L277.12 30.3047C277.127 31.3162 276.895 32.0497 276.54 32.5936C276.183 33.1396 275.669 33.5445 275.03 33.8435C273.723 34.4549 271.993 34.58 270.38 34.58V35.98ZM282.414 28.8C282.414 24.4325 285.593 22 289.124 22V20.6C284.915 20.6 281.014 23.5675 281.014 28.8H282.414ZM289.124 22C290.915 22 292.591 22.6196 293.814 23.7616C295.028 24.896 295.834 26.5816 295.834 28.8H297.234C297.234 26.2184 296.285 24.154 294.769 22.7384C293.262 21.3304 291.233 20.6 289.124 20.6V22ZM295.834 28.8C295.834 31.0184 295.028 32.704 293.814 33.8384C292.591 34.9804 290.915 35.6 289.124 35.6V37C291.233 37 293.262 36.2696 294.769 34.8616C296.285 33.446 297.234 31.3816 297.234 28.8H295.834ZM289.124 35.6C285.593 35.6 282.414 33.1675 282.414 28.8H281.014C281.014 34.0325 284.915 37 289.124 37V35.6ZM296.514 28.8C296.514 26.4478 295.666 24.5561 294.289 23.255C292.919 21.9606 291.068 21.29 289.124 21.29V22.69C290.75 22.69 292.244 23.2494 293.327 24.2725C294.403 25.2889 295.114 26.8022 295.114 28.8H296.514ZM289.124 21.29C287.18 21.29 285.329 21.9606 283.96 23.255C282.583 24.5561 281.734 26.4478 281.734 28.8H283.134C283.134 26.8022 283.846 25.2889 284.921 24.2725C286.004 23.2494 287.498 22.69 289.124 22.69V21.29ZM281.734 28.8C281.734 31.1522 282.583 33.0439 283.96 34.345C285.329 35.6394 287.18 36.31 289.124 36.31V34.91C287.498 34.91 286.004 34.3506 284.921 33.3275C283.846 32.3111 283.134 30.7978 283.134 28.8H281.734ZM289.124 36.31C291.068 36.31 292.919 35.6394 294.289 34.345C295.666 33.0439 296.514 31.1522 296.514 28.8H295.114C295.114 30.7978 294.403 32.3111 293.327 33.3275C292.244 34.3506 290.75 34.91 289.124 34.91V36.31ZM310.478 17.88L310.926 18.4178L311.178 18.2079V17.88H310.478ZM303.038 17.88H302.338V18.2079L302.59 18.4178L303.038 17.88ZM303.038 17.13L303.49 16.5956L302.338 15.6207V17.13H303.038ZM310.478 17.13H311.178V15.6207L310.026 16.5956L310.478 17.13ZM300.518 36H299.818V36.7H300.518V36ZM300.518 21.6V20.9H299.818V21.6H300.518ZM301.238 21.6H301.938V20.9H301.238V21.6ZM301.238 34.89H300.538V36.8241L301.776 35.338L301.238 34.89ZM312.308 21.6V20.9H311.98L311.77 21.152L312.308 21.6ZM312.998 21.6H313.698V20.9H312.998V21.6ZM312.998 36V36.7H313.698V36H312.998ZM312.278 36H311.578V36.7H312.278V36ZM312.278 22.71H312.978V20.7759L311.74 22.262L312.278 22.71ZM301.208 36V36.7H301.536L301.746 36.448L301.208 36ZM310.03 17.3422C309.106 18.1122 308.048 18.41 306.758 18.41V19.81C308.288 19.81 309.69 19.4478 310.926 18.4178L310.03 17.3422ZM306.758 18.41C305.468 18.41 304.41 18.1122 303.486 17.3422L302.59 18.4178C303.826 19.4478 305.228 19.81 306.758 19.81V18.41ZM303.738 17.88V17.13H302.338V17.88H303.738ZM302.586 17.6644C303.901 18.7772 305.239 19.15 306.758 19.15V17.75C305.517 17.75 304.515 17.4628 303.49 16.5956L302.586 17.6644ZM306.758 19.15C308.277 19.15 309.615 18.7772 310.93 17.6644L310.026 16.5956C309.001 17.4628 307.999 17.75 306.758 17.75V19.15ZM309.778 17.13V17.88H311.178V17.13H309.778ZM301.218 36V21.6H299.818V36H301.218ZM300.518 22.3H301.238V20.9H300.518V22.3ZM300.538 21.6V34.89H301.938V21.6H300.538ZM301.776 35.338L312.846 22.048L311.77 21.152L300.7 34.442L301.776 35.338ZM312.308 22.3H312.998V20.9H312.308V22.3ZM312.298 21.6V36H313.698V21.6H312.298ZM312.998 35.3H312.278V36.7H312.998V35.3ZM312.978 36V22.71H311.578V36H312.978ZM311.74 22.262L300.67 35.552L301.746 36.448L312.816 23.158L311.74 22.262ZM301.208 35.3H300.518V36.7H301.208V35.3ZM321.908 36H321.208V36.7H321.908V36ZM321.908 22.29H322.608V21.59H321.908V22.29ZM315.938 22.29H315.238V22.99H315.938V22.29ZM315.938 21.6V20.9H315.238V21.6H315.938ZM328.628 21.6H329.328V20.9H328.628V21.6ZM328.628 22.29V22.99H329.328V22.29H328.628ZM322.628 22.29V21.59H321.928V22.29H322.628ZM322.628 36V36.7H323.328V36H322.628ZM322.608 36V22.29H321.208V36H322.608ZM321.908 21.59H315.938V22.99H321.908V21.59ZM316.638 22.29V21.6H315.238V22.29H316.638ZM315.938 22.3H328.628V20.9H315.938V22.3ZM327.928 21.6V22.29H329.328V21.6H327.928ZM328.628 21.59H322.628V22.99H328.628V21.59ZM321.928 22.29V36H323.328V22.29H321.928ZM322.628 35.3H321.908V36.7H322.628V35.3ZM331.573 36H330.873V36.7H331.573V36ZM331.573 21.6V20.9H330.873V21.6H331.573ZM332.293 21.6H332.993V20.9H332.293V21.6ZM332.293 34.89H331.593V36.8241L332.831 35.338L332.293 34.89ZM343.363 21.6V20.9H343.035L342.825 21.152L343.363 21.6ZM344.053 21.6H344.753V20.9H344.053V21.6ZM344.053 36V36.7H344.753V36H344.053ZM343.333 36H342.633V36.7H343.333V36ZM343.333 22.71H344.033V20.7759L342.795 22.262L343.333 22.71ZM332.263 36V36.7H332.591L332.801 36.448L332.263 36ZM332.273 36V21.6H330.873V36H332.273ZM331.573 22.3H332.293V20.9H331.573V22.3ZM331.593 21.6V34.89H332.993V21.6H331.593ZM332.831 35.338L343.901 22.048L342.825 21.152L331.755 34.442L332.831 35.338ZM343.363 22.3H344.053V20.9H343.363V22.3ZM343.353 21.6V36H344.753V21.6H343.353ZM344.053 35.3H343.333V36.7H344.053V35.3ZM344.033 36V22.71H342.633V36H344.033ZM342.795 22.262L331.725 35.552L332.801 36.448L343.871 23.158L342.795 22.262ZM332.263 35.3H331.573V36.7H332.263V35.3Z" fill="white" mask="url(#path-2-outside-1_865_217)"/>
</svg>
